<svg width="217" height="130" viewBox="0 0 217 130" fill="none" xmlns="http://www.w3.org/2000/svg">
<path d="M101.738 31.2464L107.758 25.5227C118.239 15.5572 132.149 10 146.612 10H149.937C162.511 10 174.587 14.9121 183.591 23.689L184.042 24.1288C191.857 31.7467 196.742 41.8717 197.842 52.7297C199.211 66.2538 194.592 79.6995 185.2 89.5266L179.086 95.9246C166.693 108.892 149.537 116.227 131.6 116.227H69.8052C62.3773 116.227 55.0838 114.246 48.6767 110.488L36.6827 103.453C24.9485 96.5705 20.354 81.9057 26.0634 69.5582L26.6938 68.1947C30.6338 59.6738 39.1661 54.2188 48.5539 54.2188C50.5759 54.2188 52.59 53.9642 54.5484 53.4608L67.7673 50.0637C80.5095 46.789 92.203 40.3116 101.738 31.2464Z" fill="#BBC3A4"/>
<path d="M47.0041 67.5152C51.6691 59.569 59.2849 58.0926 72.4261 55.4697C74.1107 55.1335 75.6807 54.361 76.987 53.2453C87.6068 44.1749 94.7591 38.9231 105.23 33.8495C105.887 33.5309 106.588 33.2892 107.302 33.1324C127.064 28.7919 137.265 30.961 156.703 32.8666C160.756 32.738 163.663 32.7098 166.513 33.5687C168.622 34.2042 166.074 37.9672 167.506 39.6412V39.6412C173.723 46.9112 177.102 51.3334 182.274 59.4833C182.545 59.9111 182.784 60.3612 182.985 60.8264C183.031 60.9332 183.077 61.0397 183.122 61.1458M47.0041 67.5152L44.0129 70.4835C39.5303 76.1071 37.569 87.764 41.9394 98.7633C42.4573 100.067 43.3503 101.161 44.6434 101.704V101.704C48.3024 103.24 51.5022 99.2059 51.905 95.2578C54.3611 71.1823 76.5463 70.2256 81.4188 88.9149C82.9653 94.8469 87.712 100.158 93.8352 99.8631C111.62 99.0071 124.857 99.0761 142.32 99.8737C148.007 100.133 152.567 95.506 154.44 90.1306C160.485 72.7859 180.8 72.4191 182.993 93.7858C183.186 95.6672 185.577 96.5427 186.568 94.9318C190.106 89.1803 190.704 83.0396 187.507 72.7306M47.0041 67.5152C51.2657 63.9173 52.9032 66.1462 51.8204 68.8367C51.6028 69.3774 51.2403 69.8524 50.8502 70.2855C43.6552 78.2722 42.0392 71.7069 47.0041 67.5152ZM183.122 61.1458V61.1458C179.722 60.9702 179.244 65.021 181.017 67.9273L182.796 70.845C183.955 72.7454 186.223 74.5491 187.507 72.7306V72.7306M183.122 61.1458C185.01 65.5414 186.461 69.3589 187.507 72.7306M128.658 67.1245L139.336 66.8328M137.266 37.9228C125.701 37.069 110.923 37.8857 98.0756 44.8201C90.6422 48.8322 94.892 57.9445 103.33 57.543L136.08 55.9845M137.266 37.9228C143.956 38.4167 149.21 39.5064 152.754 41.2988C153.653 41.7537 154.69 42.3488 155.797 43.2479C161.077 47.5345 156.228 55.0258 149.435 55.349L136.08 55.9845M137.266 37.9228L136.08 55.9845M67.0534 79.0166C53.0763 79.7471 48.9692 110.445 66.595 110.797C83.4019 111.132 83.0882 78.1786 67.0534 79.0166ZM169.122 81.0511C152.172 81.3808 151.391 113.626 167.804 113.824C184.615 114.027 185.519 81.378 169.122 81.0511Z" stroke="black" stroke-width="4"/>
</svg>
