<svg width="1690" height="877" viewBox="0 0 1690 877" fill="none" xmlns="http://www.w3.org/2000/svg">
<g clip-path="url(#clip0)">
<path d="M0 649.705C451.673 293.993 1060.78 1077.2 1690 771.311V1483H0V649.705Z" fill="#EDF6FF"/>
<path fill-rule="evenodd" clip-rule="evenodd" d="M281.061 101.185C244.289 78.8578 221.551 34.1846 179.346 24.9235C132.675 14.6823 77.4104 16.5607 36.8318 47.5929C-3.68828 78.5805 -3.16394 141.128 -30.4214 185.342C-61.548 235.832 -126.798 267.211 -134.466 325.454C-142.052 383.084 -106.584 436.931 -68.6199 475.504C-33.5119 511.175 21.2864 511.231 67.1182 530.271C109.685 547.955 147.314 602.333 192.046 583.795C241.335 563.368 230.087 470.99 276.58 443.464C331.131 411.167 405.314 467.314 455.679 427.713C501.928 391.348 524.077 315.747 509.88 260.024C495.285 202.74 431.121 181.821 384.847 149.698C352.879 127.507 314.287 121.358 281.061 101.185Z" fill="#738683"/>
<path fill-rule="evenodd" clip-rule="evenodd" d="M97.2313 -158.372C113.127 -218.007 182.094 -254.904 248.747 -261.801C312.257 -268.373 372.179 -217.288 435.551 -193.382C484.489 -174.92 536.666 -168.733 578.827 -137.283C622.048 -105.041 651.036 -60.8306 674.608 -15.0516C700.296 34.839 743.02 93.3782 720.771 138.39C697.659 185.147 621.878 177.489 570.137 196.302C535.345 208.952 504.775 226.938 466.487 230.848C427.524 234.827 386.999 234.4 348.383 218.949C308.362 202.934 275.603 174.127 246.445 142.8C214.162 108.117 191.582 69.6266 171.312 28.7121C140.523 -33.4324 81.0431 -97.6396 97.2313 -158.372Z" stroke="white" stroke-width="5"/>
<path fill-rule="evenodd" clip-rule="evenodd" d="M1191.12 278.049C1182.63 214.325 1169.59 149.779 1193.03 89.9188C1217.02 28.6519 1259.85 -29.8384 1321.1 -53.8786C1379.32 -76.7301 1441.51 -44.2295 1502.78 -31.6621C1556.32 -20.6808 1613 -19.1675 1655.83 14.7823C1700.06 49.8487 1728.08 101.609 1740.39 156.698C1752.72 211.883 1752.46 272.345 1724.34 321.403C1697.53 368.178 1640.96 383.69 1594.55 411.128C1548 438.649 1506.06 471.584 1452.96 481.84C1383.11 495.332 1300.93 522.38 1244.8 478.688C1188.79 435.1 1200.48 348.397 1191.12 278.049Z" fill="#F1C9BB"/>
<path fill-rule="evenodd" clip-rule="evenodd" d="M1627.75 236.774C1696.98 236.737 1766.08 245.876 1824.06 273.784C1884.12 302.697 1947.99 341.907 1955.44 394.515C1962.73 445.994 1896.83 484.576 1860.17 528.718C1833.33 561.041 1812.37 595.942 1770.19 617.606C1728.61 638.97 1678.43 648.366 1627.75 648.112C1577.33 647.861 1527.27 638.254 1486.7 616.19C1446.31 594.231 1425.26 560.183 1404.24 526.582C1380.24 488.212 1351.92 450.158 1356.49 408.037C1361.85 358.632 1380.59 306.225 1431.64 273.991C1484.2 240.807 1558.56 236.81 1627.75 236.774Z" fill="#C07756"/>
<path fill-rule="evenodd" clip-rule="evenodd" d="M1738.77 433.899C1746.69 478.052 1747.56 523.089 1737.39 566.779C1727.32 610.015 1715.3 657.969 1680.26 685.23C1645.04 712.633 1595.17 716.682 1550.8 711.961C1512.77 707.913 1486.25 649.281 1449.75 660.702C1391.61 678.891 1378.12 771.854 1318.55 784.619C1271.17 794.774 1228.45 748.379 1192.56 715.82C1154.12 680.955 1114.36 640.96 1104.1 590.09C1093.88 539.369 1108.26 483.389 1137.04 440.392C1164.32 399.644 1222.79 394.117 1258.08 360.072C1287.11 332.064 1283.87 266.148 1323.78 260.248C1370.68 253.312 1404.91 306.016 1444.2 332.551C1465.94 347.231 1478.05 384.96 1504.11 382.029C1571.74 374.424 1623.92 290.18 1690.37 304.87C1735.79 314.91 1730.55 388.112 1738.77 433.899Z" stroke="black" stroke-width="5"/>
</g>
<defs>
<clipPath id="clip0">
<rect width="1690" height="877" fill="white"/>
</clipPath>
</defs>
</svg>
