<svg width="1015" height="877" viewBox="0 0 1015 877" fill="none" xmlns="http://www.w3.org/2000/svg">
<g clip-path="url(#clip0)">
<path fill-rule="evenodd" clip-rule="evenodd" d="M369.199 543.776C360.713 480.052 347.668 415.506 371.109 355.646C395.101 294.379 437.931 235.889 499.179 211.849C557.398 188.997 619.597 221.498 680.864 234.065C734.4 245.046 791.085 246.56 833.911 280.509C878.145 315.576 906.162 367.336 918.471 422.425C930.802 477.61 930.545 538.072 902.425 587.13C875.613 633.905 819.043 649.417 772.631 676.855C726.079 704.376 684.139 737.311 631.042 747.567C561.196 761.059 479.016 788.107 422.878 744.415C366.873 700.827 378.566 614.124 369.199 543.776Z" fill="#F1C9BB"/>
<path fill-rule="evenodd" clip-rule="evenodd" d="M776.308 503C838.043 502.968 899.655 511.099 951.351 535.931C1004.91 561.657 1061.86 596.544 1068.5 643.353C1075 689.158 1016.24 723.487 983.553 762.763C959.621 791.523 940.927 822.576 903.323 841.852C866.24 860.861 821.5 869.221 776.308 868.996C731.355 868.772 686.718 860.224 650.537 840.592C614.525 821.053 595.753 790.758 577.012 760.862C555.61 726.722 530.362 692.862 534.436 655.384C539.216 611.425 555.922 564.796 601.446 536.114C648.312 506.588 714.612 503.032 776.308 503Z" fill="#C07756"/>
<path fill-rule="evenodd" clip-rule="evenodd" d="M1385.81 515.279C1393.73 559.431 1394.6 604.469 1384.43 648.159C1374.36 691.395 1362.34 739.349 1327.3 766.61C1292.09 794.013 1242.22 798.062 1197.84 793.34C1159.81 789.293 1133.29 730.661 1096.79 742.081C1038.65 760.271 1025.16 853.234 965.597 865.999C918.213 876.154 875.493 829.758 839.6 797.2C801.165 762.335 761.4 722.34 751.146 671.47C740.923 620.748 755.302 564.769 784.084 521.772C811.361 481.024 869.83 475.496 905.121 441.452C934.154 413.444 930.916 347.528 970.824 341.627C1017.73 334.692 1051.95 387.396 1091.24 413.931C1112.98 428.611 1125.09 466.34 1151.16 463.409C1218.79 455.804 1270.96 371.56 1337.41 386.249C1382.84 396.29 1377.59 469.492 1385.81 515.279Z" stroke="black" stroke-width="5"/>
<path fill-rule="evenodd" clip-rule="evenodd" d="M332.061 -99.1147C295.289 -121.442 272.551 -166.115 230.346 -175.376C183.675 -185.617 128.41 -183.739 87.8318 -152.707C47.3117 -121.719 47.8361 -59.1718 20.5786 -14.9575C-10.548 35.5328 -75.7982 66.9112 -83.4657 125.154C-91.0525 182.785 -55.5836 236.632 -17.6199 275.204C17.4881 310.876 72.2864 310.931 118.118 329.972C160.685 347.656 198.314 402.034 243.046 383.496C292.335 363.068 281.087 270.69 327.58 243.164C382.131 210.868 456.314 267.014 506.679 227.413C552.928 191.048 575.077 115.448 560.88 59.7246C546.285 2.44021 482.121 -18.4791 435.847 -50.6016C403.879 -72.7924 365.287 -78.9412 332.061 -99.1147Z" fill="#738683"/>
<path fill-rule="evenodd" clip-rule="evenodd" d="M41.5948 -248.672C57.4902 -308.307 126.458 -345.204 193.111 -352.101C256.621 -358.673 316.543 -307.588 379.914 -283.681C428.853 -265.22 481.03 -259.033 523.19 -227.582C566.412 -195.34 595.4 -151.13 618.971 -105.351C644.66 -55.4605 687.383 3.07857 665.134 48.0905C642.022 94.8476 566.241 87.1891 514.501 106.002C479.708 118.653 449.139 136.638 410.85 140.549C371.888 144.528 331.363 144.101 292.747 128.649C252.726 112.635 219.967 83.8272 190.808 52.5007C158.525 17.8177 135.946 -20.673 115.675 -61.5875C84.8862 -123.732 25.4066 -187.939 41.5948 -248.672Z" stroke="white" stroke-width="5"/>
</g>
<defs>
<clipPath id="clip0">
<rect width="1015" height="877" fill="white"/>
</clipPath>
</defs>
</svg>
