<svg width="1690" height="877" viewBox="0 0 1690 877" fill="none" xmlns="http://www.w3.org/2000/svg">
<g clip-path="url(#clip0)">
<path fill-rule="evenodd" clip-rule="evenodd" d="M291.062 141.185C254.29 118.858 231.551 74.1845 189.347 64.9234C142.676 54.6823 87.4109 56.5606 46.8323 87.5929C6.31223 118.58 6.83655 181.128 -20.4209 225.342C-51.5475 275.832 -116.798 307.211 -124.465 365.454C-132.052 423.084 -96.5831 476.931 -58.6195 515.504C-23.5114 551.175 31.2869 551.231 77.1187 570.271C119.686 587.955 157.315 642.333 202.046 623.795C251.336 603.368 240.088 510.99 286.58 483.464C341.131 451.167 415.314 507.314 465.68 467.713C511.929 431.348 534.078 355.747 519.881 300.024C505.286 242.74 441.122 221.82 394.847 189.698C362.88 167.507 324.287 161.358 291.062 141.185Z" fill="#738683"/>
<path fill-rule="evenodd" clip-rule="evenodd" d="M97.2315 -118.373C113.127 -178.007 182.094 -214.904 248.747 -221.801C312.258 -228.374 372.179 -177.288 435.551 -153.382C484.489 -134.92 536.667 -128.733 578.827 -97.2827C622.049 -65.0407 651.036 -20.8307 674.608 24.9483C700.297 74.8389 743.02 133.378 720.771 178.39C697.659 225.147 621.878 217.489 570.138 236.301C535.345 248.952 504.776 266.938 466.487 270.848C427.525 274.827 386.999 274.4 348.384 258.948C308.362 242.934 275.603 214.127 246.445 182.8C214.162 148.117 191.583 109.626 171.312 68.7119C140.523 6.56749 81.0433 -57.6397 97.2315 -118.373Z" stroke="white" stroke-width="5"/>
<path fill-rule="evenodd" clip-rule="evenodd" d="M1191.12 278.049C1182.63 214.325 1169.59 149.779 1193.03 89.9188C1217.02 28.6519 1259.85 -29.8384 1321.1 -53.8786C1379.32 -76.7301 1441.51 -44.2295 1502.78 -31.6621C1556.32 -20.6808 1613 -19.1675 1655.83 14.7823C1700.06 49.8487 1728.08 101.609 1740.39 156.698C1752.72 211.883 1752.46 272.345 1724.34 321.403C1697.53 368.178 1640.96 383.69 1594.55 411.128C1548 438.649 1506.06 471.584 1452.96 481.84C1383.11 495.332 1300.93 522.38 1244.8 478.688C1188.79 435.1 1200.48 348.397 1191.12 278.049Z" fill="#F1C9BB"/>
<path fill-rule="evenodd" clip-rule="evenodd" d="M1627.75 236.774C1696.98 236.737 1766.08 245.876 1824.06 273.784C1884.12 302.697 1947.99 341.907 1955.44 394.515C1962.73 445.994 1896.83 484.576 1860.17 528.718C1833.33 561.041 1812.37 595.942 1770.19 617.606C1728.61 638.97 1678.43 648.366 1627.75 648.112C1577.33 647.861 1527.27 638.254 1486.7 616.19C1446.31 594.231 1425.26 560.183 1404.24 526.582C1380.24 488.212 1351.92 450.158 1356.49 408.037C1361.85 358.632 1380.59 306.225 1431.64 273.991C1484.2 240.807 1558.56 236.81 1627.75 236.774Z" fill="#C07756"/>
<path fill-rule="evenodd" clip-rule="evenodd" d="M1738.77 433.899C1746.69 478.052 1747.56 523.089 1737.39 566.779C1727.32 610.015 1715.3 657.969 1680.26 685.23C1645.04 712.633 1595.17 716.682 1550.8 711.961C1512.77 707.913 1486.25 649.281 1449.75 660.702C1391.61 678.891 1378.12 771.854 1318.55 784.619C1271.17 794.774 1228.45 748.379 1192.56 715.82C1154.12 680.955 1114.36 640.96 1104.1 590.09C1093.88 539.369 1108.26 483.389 1137.04 440.392C1164.32 399.644 1222.79 394.117 1258.08 360.072C1287.11 332.064 1283.87 266.148 1323.78 260.248C1370.68 253.312 1404.91 306.016 1444.2 332.551C1465.94 347.231 1478.05 384.96 1504.11 382.029C1571.74 374.424 1623.92 290.18 1690.37 304.87C1735.79 314.91 1730.55 388.112 1738.77 433.899Z" stroke="black" stroke-width="5"/>
</g>
<defs>
<clipPath id="clip0">
<rect width="1690" height="877" fill="white"/>
</clipPath>
</defs>
</svg>
