<svg width="2205" height="1247" viewBox="0 0 2205 1247" fill="none" xmlns="http://www.w3.org/2000/svg">
<path fill-rule="evenodd" clip-rule="evenodd" d="M482.353 480.002C444.539 457.042 421.157 411.103 377.756 401.58C329.762 391.048 272.931 392.98 231.203 424.891C189.535 456.757 190.074 521.077 162.044 566.544C130.035 618.465 62.9361 650.733 55.0514 710.626C47.2496 769.89 83.7236 825.263 122.763 864.928C158.866 901.61 215.217 901.668 262.348 921.248C306.121 939.433 344.816 995.352 390.815 976.288C441.502 955.282 429.935 860.286 477.745 831.98C533.842 798.769 610.127 856.506 661.92 815.783C709.479 778.387 732.256 700.645 717.656 643.342C702.648 584.435 636.666 562.923 589.08 529.89C556.206 507.07 516.52 500.747 482.353 480.002Z" fill="#738683"/>
<path fill-rule="evenodd" clip-rule="evenodd" d="M293.314 213.09C309.66 151.765 380.582 113.823 449.124 106.73C514.434 99.9716 576.053 152.505 641.221 177.088C691.546 196.073 745.202 202.435 788.557 234.777C833.003 267.933 862.812 313.396 887.052 360.472C913.468 411.776 957.403 471.974 934.523 518.262C910.756 566.344 832.828 558.468 779.621 577.814C743.843 590.823 712.407 609.319 673.033 613.34C632.967 617.432 591.293 616.992 551.583 601.103C510.428 584.635 476.741 555.011 446.756 522.797C413.558 487.131 390.339 447.55 369.494 405.476C337.832 341.57 276.667 275.543 293.314 213.09Z" stroke="white" stroke-width="5"/>
<path fill-rule="evenodd" clip-rule="evenodd" d="M1418.2 682.444C1409.47 616.915 1396.06 550.54 1420.16 488.984C1444.83 425.98 1488.88 365.833 1551.86 341.111C1611.73 317.612 1675.69 351.034 1738.7 363.957C1793.75 375.25 1852.04 376.806 1896.08 411.718C1941.57 447.778 1970.38 501.005 1983.04 557.655C1995.72 614.403 1995.45 676.579 1966.53 727.027C1938.96 775.128 1880.79 791.079 1833.06 819.295C1785.19 847.596 1742.06 881.464 1687.46 892.011C1615.64 905.885 1531.13 933.7 1473.4 888.77C1415.81 843.946 1427.83 754.786 1418.2 682.444Z" fill="#F1C9BB"/>
<path fill-rule="evenodd" clip-rule="evenodd" d="M1867.2 640C1938.4 639.963 2009.45 649.361 2069.07 678.059C2130.84 707.792 2196.52 748.113 2204.18 802.211C2211.68 855.149 2143.9 894.825 2106.21 940.217C2078.61 973.456 2057.05 1009.35 2013.68 1031.62C1970.92 1053.59 1919.32 1063.26 1867.2 1062.99C1815.36 1062.74 1763.88 1052.86 1722.15 1030.17C1680.62 1007.59 1658.97 972.573 1637.36 938.021C1612.68 898.564 1583.56 859.431 1588.26 816.116C1593.77 765.311 1613.04 711.42 1665.54 678.272C1719.59 644.147 1796.05 640.038 1867.2 640Z" fill="#C07756"/>
<path fill-rule="evenodd" clip-rule="evenodd" d="M1981.37 842.711C1989.52 888.115 1990.4 934.429 1979.95 979.357C1969.6 1023.82 1957.23 1073.13 1921.2 1101.16C1884.99 1129.34 1833.7 1133.51 1788.07 1128.65C1748.96 1124.49 1721.7 1064.2 1684.16 1075.94C1624.37 1094.65 1610.5 1190.24 1549.25 1203.37C1500.52 1213.81 1456.59 1166.1 1419.68 1132.62C1380.16 1096.77 1339.26 1055.64 1328.72 1003.33C1318.21 951.169 1332.99 893.604 1362.59 849.388C1390.64 807.485 1450.77 801.801 1487.06 766.792C1516.91 737.99 1513.58 670.207 1554.62 664.139C1602.85 657.007 1638.04 711.204 1678.45 738.491C1700.8 753.587 1713.26 792.385 1740.06 789.371C1809.61 781.551 1863.27 694.92 1931.6 710.025C1978.31 720.351 1972.91 795.627 1981.37 842.711Z" stroke="black" stroke-width="5"/>
</svg>
