<svg width="1690" height="877" viewBox="0 0 1690 877" fill="none" xmlns="http://www.w3.org/2000/svg">
<g clip-path="url(#clip0)">
<path fill-rule="evenodd" clip-rule="evenodd" d="M281.062 171.185C244.29 148.858 221.551 104.185 179.347 94.9234C132.676 84.6823 77.4109 86.5606 36.8323 117.593C-3.68777 148.58 -3.16345 211.128 -30.4209 255.342C-61.5475 305.832 -126.798 337.211 -134.465 395.454C-142.052 453.084 -106.583 506.931 -68.6195 545.504C-33.5114 581.175 21.2869 581.231 67.1187 600.271C109.686 617.955 147.315 672.333 192.046 653.795C241.336 633.368 230.088 540.99 276.58 513.464C331.131 481.167 405.314 537.314 455.68 497.713C501.929 461.348 524.078 385.747 509.881 330.024C495.286 272.74 431.122 251.82 384.847 219.698C352.88 197.507 314.287 191.358 281.062 171.185Z" fill="#879A97"/>
<path fill-rule="evenodd" clip-rule="evenodd" d="M87.2315 -88.3726C103.127 -148.007 172.094 -184.904 238.747 -191.801C302.258 -198.374 362.179 -147.288 425.551 -123.382C474.489 -104.92 526.667 -98.7335 568.827 -67.2827C612.049 -35.0407 641.036 9.16926 664.608 54.9483C690.297 104.839 733.02 163.378 710.771 208.39C687.659 255.147 611.878 247.489 560.138 266.301C525.345 278.952 494.776 296.938 456.487 300.848C417.525 304.827 376.999 304.4 338.384 288.948C298.362 272.934 265.603 244.127 236.445 212.8C204.162 178.117 181.583 139.626 161.312 98.7119C130.523 36.5675 71.0433 -27.6397 87.2315 -88.3726Z" stroke="white" stroke-width="5"/>
<path fill-rule="evenodd" clip-rule="evenodd" d="M1181.12 308.049C1172.63 244.325 1159.59 179.779 1183.03 119.919C1207.02 58.6519 1249.85 0.161596 1311.1 -23.8786C1369.32 -46.7301 1431.51 -14.2295 1492.78 -1.66213C1546.32 9.31919 1603 10.8325 1645.83 44.7823C1690.06 79.8487 1718.08 131.609 1730.39 186.698C1742.72 241.883 1742.46 302.345 1714.34 351.403C1687.53 398.178 1630.96 413.69 1584.55 441.128C1538 468.649 1496.06 501.584 1442.96 511.84C1373.11 525.332 1290.93 552.38 1234.8 508.688C1178.79 465.1 1190.48 378.397 1181.12 308.049Z" fill="#F1C9BB"/>
<path fill-rule="evenodd" clip-rule="evenodd" d="M1617.75 266.774C1686.98 266.737 1756.08 275.876 1814.06 303.784C1874.12 332.697 1937.99 371.907 1945.44 424.515C1952.73 475.994 1886.83 514.576 1850.17 558.718C1823.33 591.041 1802.37 625.942 1760.19 647.606C1718.61 668.97 1668.43 678.366 1617.75 678.112C1567.33 677.861 1517.27 668.254 1476.7 646.19C1436.31 624.231 1415.26 590.183 1394.24 556.582C1370.24 518.212 1341.92 480.158 1346.49 438.037C1351.85 388.632 1370.59 336.225 1421.64 303.991C1474.2 270.807 1548.56 266.81 1617.75 266.774Z" fill="#C07756"/>
<path fill-rule="evenodd" clip-rule="evenodd" d="M1728.77 463.899C1736.69 508.052 1737.56 553.089 1727.39 596.779C1717.32 640.015 1705.3 687.969 1670.26 715.23C1635.04 742.633 1585.17 746.682 1540.8 741.961C1502.77 737.913 1476.25 679.281 1439.75 690.702C1381.61 708.891 1368.12 801.854 1308.55 814.619C1261.17 824.774 1218.45 778.379 1182.56 745.82C1144.12 710.955 1104.36 670.96 1094.1 620.09C1083.88 569.369 1098.26 513.389 1127.04 470.392C1154.32 429.644 1212.79 424.117 1248.08 390.072C1277.11 362.064 1273.87 296.148 1313.78 290.248C1360.68 283.312 1394.91 336.016 1434.2 362.551C1455.94 377.231 1468.05 414.96 1494.11 412.029C1561.74 404.424 1613.92 320.18 1680.37 334.87C1725.79 344.91 1720.55 418.112 1728.77 463.899Z" stroke="black" stroke-width="5"/>
</g>
<defs>
<clipPath id="clip0">
<rect width="1690" height="877" fill="white"/>
</clipPath>
</defs>
</svg>
