<svg width="1690" height="877" viewBox="0 0 1690 877" fill="none" xmlns="http://www.w3.org/2000/svg">
<g clip-path="url(#clip0_372_9325)">
<path fill-rule="evenodd" clip-rule="evenodd" d="M-141.133 183.322C-180.947 199.616 -230.386 191.34 -262.925 219.77C-298.906 251.209 -330.252 296.763 -329.425 347.84C-328.598 398.845 -277.994 435.609 -258.647 483.812C-236.554 538.858 -250.117 609.98 -207.843 650.772C-166.014 691.135 -101.63 694.628 -48.0441 687.035C1.51086 680.013 34.1345 635.984 76.6926 610.451C116.219 586.738 182.315 588.81 194.002 541.821C206.881 490.044 125.914 444.167 131.422 390.418C137.885 327.354 227.135 301.086 225.236 237.044C223.492 178.236 175.871 115.481 122.625 93.7677C67.8866 71.4463 12.919 110.602 -40.4213 128.713C-77.2699 141.224 -105.158 168.6 -141.133 183.322Z" fill="#AEC1C2"/>
<path fill-rule="evenodd" clip-rule="evenodd" d="M-82.7681 -108.371C-66.8727 -168.006 2.09463 -204.903 68.7478 -211.8C132.258 -218.372 192.18 -167.287 255.552 -143.38C304.49 -124.919 356.667 -118.732 398.828 -87.2811C442.049 -55.0391 471.037 -10.8292 494.608 34.9499C520.297 84.8405 563.02 143.38 540.771 188.392C517.66 235.149 441.878 227.49 390.138 246.303C355.345 258.954 324.776 276.939 286.487 280.85C247.525 284.829 207 284.402 168.384 268.95C128.363 252.936 95.6038 224.128 66.4452 192.802C34.1624 158.119 11.5829 119.628 -8.68785 78.7135C-39.4768 16.5691 -98.9563 -47.6381 -82.7681 -108.371Z" stroke="white" stroke-width="5"/>
<path fill-rule="evenodd" clip-rule="evenodd" d="M1346.93 332.341C1295.1 294.309 1239.52 258.996 1212.6 200.619C1185.04 140.871 1172.54 69.4622 1197.64 8.64089C1221.5 -49.1731 1288.03 -71.506 1339.54 -106.979C1384.55 -137.974 1424.91 -177.801 1479.06 -185.16C1535 -192.762 1591.73 -177.102 1639.99 -147.811C1688.32 -118.468 1731.74 -76.3916 1747.63 -22.1258C1762.79 29.6163 1734.78 81.1554 1722.41 133.632C1710 186.268 1704.69 239.33 1675.3 284.724C1636.64 344.437 1599.2 422.436 1528.8 432.645C1458.57 442.83 1404.15 374.326 1346.93 332.341Z" fill="#F1C9BB"/>
<path fill-rule="evenodd" clip-rule="evenodd" d="M1657.75 331.774C1726.99 331.738 1796.08 340.877 1854.06 368.784C1914.12 397.697 1977.99 436.907 1985.44 489.515C1992.74 540.995 1926.83 579.576 1890.17 623.718C1863.33 656.041 1842.37 690.942 1800.2 712.606C1758.61 733.97 1708.43 743.366 1657.75 743.113C1607.34 742.861 1557.28 733.254 1516.7 711.191C1476.31 689.231 1455.26 655.183 1434.24 621.583C1410.24 583.212 1381.92 545.158 1386.49 503.037C1391.85 453.632 1410.59 401.225 1461.65 368.991C1514.2 335.807 1588.56 331.81 1657.75 331.774Z" fill="#C07756"/>
<path fill-rule="evenodd" clip-rule="evenodd" d="M1735.13 583.969C1733.99 628.813 1725.76 673.101 1707 713.845C1688.43 754.166 1666.99 798.713 1627.18 818.354C1587.16 838.098 1537.49 832.014 1494.98 818.448C1458.54 806.819 1444.39 744.046 1406.33 747.876C1345.72 753.976 1313.78 842.314 1252.86 842.815C1204.4 843.212 1171.91 789.16 1143.31 750.036C1112.69 708.141 1081.8 660.953 1082.01 609.06C1082.22 557.319 1107.58 505.386 1144.44 469.071C1179.37 434.655 1237.75 441.024 1279.18 414.79C1313.26 393.207 1323.37 327.991 1363.65 330.253C1410.99 332.912 1433.89 391.431 1467.02 425.34C1485.36 444.099 1489.62 483.495 1515.74 485.877C1583.52 492.057 1651.6 420.055 1713.73 447.834C1756.19 466.823 1736.3 537.466 1735.13 583.969Z" stroke="white" stroke-width="5"/>
</g>
<defs>
<clipPath id="clip0_372_9325">
<rect width="1690" height="877" fill="white"/>
</clipPath>
</defs>
</svg>
