<svg width="868" height="866" viewBox="0 0 868 866" fill="none" xmlns="http://www.w3.org/2000/svg">
<g clip-path="url(#clip0)">
<path fill-rule="evenodd" clip-rule="evenodd" d="M98.1331 344.776C89.6476 281.052 76.6027 216.506 100.044 156.646C124.035 95.379 166.865 36.8887 228.113 12.8485C286.332 -10.003 348.531 22.4976 409.799 35.065C463.334 46.0463 520.019 47.5597 562.845 81.5095C607.08 116.576 635.096 168.336 647.406 223.425C659.736 278.61 659.479 339.072 631.359 388.13C604.547 434.905 547.977 450.417 501.566 477.855C455.014 505.376 413.073 538.311 359.976 548.567C290.13 562.059 207.95 589.107 151.812 545.415C95.8069 501.827 107.501 415.124 98.1331 344.776Z" fill="#F1C9BB"/>
<path fill-rule="evenodd" clip-rule="evenodd" d="M534.79 303.501C604.026 303.465 673.123 312.604 731.099 340.511C791.164 369.424 855.031 408.635 862.484 461.242C869.776 512.722 803.868 551.304 767.214 595.445C740.374 627.768 719.41 662.669 677.236 684.333C635.648 705.697 585.473 715.093 534.79 714.84C484.376 714.588 434.317 704.981 393.74 682.918C353.353 660.958 332.299 626.91 311.281 593.31C287.28 554.94 258.964 516.885 263.534 474.764C268.894 425.359 287.63 372.952 338.685 340.718C391.244 307.534 465.598 303.537 534.79 303.501Z" fill="#C07756"/>
<path fill-rule="evenodd" clip-rule="evenodd" d="M645.808 500.627C653.733 544.779 654.598 589.816 644.428 633.506C634.364 676.742 622.34 724.696 587.304 751.957C552.086 779.36 502.216 783.409 457.843 778.688C419.807 774.641 393.294 716.008 356.789 727.429C298.649 745.618 285.162 838.581 225.597 851.347C178.213 861.502 135.493 815.106 99.6003 782.547C61.1646 747.682 21.3998 707.687 11.1463 656.817C0.922669 606.096 15.3016 550.117 44.084 507.12C71.3611 466.371 129.83 460.844 165.121 426.799C194.154 398.791 190.916 332.876 230.823 326.975C277.727 320.039 311.948 372.743 351.24 399.278C372.978 413.958 385.09 451.687 411.156 448.756C478.786 441.152 530.963 356.908 597.414 371.597C642.836 381.638 637.589 454.84 645.808 500.627Z" stroke="black" stroke-width="5"/>
</g>
<defs>
<clipPath id="clip0">
<rect width="868" height="866" fill="white"/>
</clipPath>
</defs>
</svg>
