<svg width="184" height="131" viewBox="0 0 184 131" fill="none" xmlns="http://www.w3.org/2000/svg">
<path fill-rule="evenodd" clip-rule="evenodd" d="M79.4889 12.9606C90.9297 7.85192 103.984 2.39718 115.556 7.9199C127.326 13.5377 133.597 27.893 138.328 41.0434C142.72 53.253 142.676 66.2194 141.146 79.0612C139.582 92.1878 139.517 108.379 129.472 115.377C119.351 122.427 106.064 110.581 94.0304 111.883C82.711 113.107 73.1676 127.125 62.3891 122.634C51.7093 118.184 49.5502 102.64 44.5694 91.2727C39.7054 80.1715 31.1686 69.0634 33.7642 57.3034C36.3383 45.6407 49.1119 41.8302 57.2171 33.9699C64.7371 26.6772 70.1701 17.1217 79.4889 12.9606Z" fill="#BCE9F4"/>
<rect x="51.2176" y="24.9907" width="59.0819" height="105.171" rx="12" transform="rotate(-12.2096 51.2176 24.9907)" stroke="black" stroke-width="4"/>
<rect x="59.6973" y="30.1607" width="45.0949" height="91.2691" rx="8" transform="rotate(-12.2096 59.6973 30.1607)" stroke="black" stroke-width="4"/>
</svg>
