<svg width="1280" height="870" viewBox="0 0 1280 870" fill="none" xmlns="http://www.w3.org/2000/svg">
<path fill-rule="evenodd" clip-rule="evenodd" d="M-114.333 299.471C-145.804 255.225 -158.158 216.739 -159.668 164.221C-154.652 98.8776 -112.001 35.5108 -61.3567 15.0588C-13.0542 -4.4472 36.1861 29.173 89.3307 43.8725C142.701 58.6345 167.589 50.3884 208.399 91.8104C254.184 138.283 205.407 177.196 197.153 221.743C186.267 280.493 137.142 314.442 86.0339 338.137C46.2823 356.566 40.3051 387.396 -4.57068 375.689C-49.6434 363.932 -85.7873 339.603 -114.333 299.471Z" fill="#FAD9A5" fill-opacity="0.35"/>
<path fill-rule="evenodd" clip-rule="evenodd" d="M-169.697 304.544C-211.166 269.494 -232.685 235.279 -247.184 184.779C-258.545 120.236 -232.957 48.2654 -188.973 15.8827C-147.024 -15.0023 -90.9799 5.34361 -35.8498 6.39184C19.5144 7.44452 41.5768 -6.72108 91.3908 23.2751C147.278 56.9284 109.687 106.731 112.748 151.932C116.786 211.546 77.6246 256.627 33.9972 292.265C0.0640991 319.985 1.92637 351.334 -44.4508 351.132C-91.0315 350.93 -132.083 336.335 -169.697 304.544Z" stroke="white" stroke-width="5"/>
<path fill-rule="evenodd" clip-rule="evenodd" d="M875.099 802.584C803.329 820.909 729.64 831.136 663.277 821.932C594.532 812.395 519.532 794.817 500.027 750.559C480.941 707.25 540.627 655.936 568.751 607.462C589.341 571.969 603.257 535.763 642.138 505.582C680.464 475.823 730.386 454.309 782.988 441.141C835.32 428.04 889.373 423.255 936.377 431.923C983.17 440.547 1012.62 464.903 1041.94 488.874C1075.41 516.249 1113.3 542.204 1117.99 580.423C1123.5 625.252 1115.8 676.253 1070.09 718.066C1023.03 761.112 946.827 784.271 875.099 802.584Z" fill="#FAD9A5"/>
<path d="M633.088 592.85L631.393 591.189L633.088 592.85C638.929 586.888 644.483 580.866 649.994 574.892C671.843 551.206 692.997 528.273 728.571 512.787L728.571 512.787C772.655 493.589 825.979 485.1 879.963 485.328C933.684 485.553 986.862 494.232 1029.84 514.041L1029.84 514.041C1072.07 533.499 1094.25 563.541 1116.58 593.791L1117.11 594.508C1120.05 598.491 1123.03 602.452 1126.01 606.403C1136.14 619.839 1146.17 633.15 1153.96 646.737C1164.01 664.271 1170.08 681.876 1167.73 700.199C1162.07 744.463 1142.33 791.128 1088.63 819.866C1033.03 849.619 954.098 853.289 879.983 853.324C806.056 853.359 732.493 845.084 670.888 819.955C638.804 806.865 605.859 791.505 579.976 773.537C554.01 755.512 535.652 735.205 531.839 712.384C528.178 690.479 542.815 670.903 564.385 651.304C573.461 643.057 583.586 634.959 593.797 626.792C595.629 625.326 597.464 623.858 599.297 622.387C611.298 612.75 623.166 602.975 633.088 592.85Z" stroke="white" stroke-width="5"/>
</svg>
