<svg width="1996" height="1008" viewBox="0 0 1996 1008" fill="none" xmlns="http://www.w3.org/2000/svg">
<path fill-rule="evenodd" clip-rule="evenodd" d="M1533.21 894.03C1473.46 917.394 1410.46 932.092 1350.18 925.408C1287.73 918.484 1218.22 903.167 1192.49 856.253C1167.32 810.345 1210.06 751.888 1225.51 698.065C1236.82 658.653 1242.12 618.799 1270.57 584.234C1298.64 550.149 1338.5 524.415 1382.34 507.574C1425.95 490.823 1472.68 482.98 1515.8 490.036C1558.72 497.058 1589.38 521.952 1619.84 546.438C1654.63 574.399 1693.03 600.61 1704.54 641.723C1718.03 689.945 1721.08 745.495 1688.83 792.984C1655.63 841.871 1592.92 870.681 1533.21 894.03Z" stroke="white" stroke-width="5"/>
<path fill-rule="evenodd" clip-rule="evenodd" d="M237.582 308.85C201.637 341.731 145.859 352.263 122.391 395.198C96.4406 442.676 80.9347 503.344 101.782 557.305C122.599 611.189 190.753 630.479 230.158 674.146C275.156 724.012 288.546 804.9 349.42 831.728C409.654 858.273 479.447 836.817 533.429 807.799C583.35 780.963 600.81 721.417 636.059 677.644C668.797 636.99 739.852 613.354 733.905 558.845C727.351 498.783 623.367 481.677 608.209 422.401C590.424 352.851 675.009 290.043 647.955 222.722C623.112 160.904 547.969 112.825 482.891 110.563C415.99 108.239 372.878 171.341 323.269 211.441C288.998 239.143 270.06 279.14 237.582 308.85Z" stroke="white" stroke-width="5"/>
<path fill-rule="evenodd" clip-rule="evenodd" d="M1432.97 369.279C1425.87 313.617 1414.56 257.291 1437.04 204.62C1460.04 150.71 1500.49 99.0011 1557.6 77.2149C1611.89 56.5059 1669.2 84.1882 1725.88 94.4379C1775.42 103.394 1827.98 104.026 1867.3 133.213C1907.91 163.36 1933.27 208.315 1944.01 256.374C1954.78 304.516 1953.8 357.432 1927.12 400.706C1901.67 441.968 1849 456.234 1805.61 480.812C1762.09 505.465 1722.78 534.8 1673.39 544.424C1608.43 557.084 1531.86 581.758 1480.31 544.208C1428.89 506.746 1440.8 430.728 1432.97 369.279Z" stroke="white" stroke-width="5"/>
</svg>
