<svg width="184" height="130" viewBox="0 0 184 130" fill="none" xmlns="http://www.w3.org/2000/svg">
<path d="M89.3917 40.1735L89.979 39.0001C99.5369 19.9008 124.219 14.3876 140.995 27.6045C152.354 36.5532 156.742 51.7487 151.901 65.3749L142.923 90.6491C141.707 94.0719 140.095 97.3406 138.12 100.389C127.08 117.425 106.277 125.349 86.7009 119.975L85.0245 119.515L48.3429 113.016C41.5543 111.813 35.863 107.201 33.2806 100.808C29.6471 91.8139 32.9883 81.5088 41.2083 76.3578L76.7553 54.0823C82.1637 50.6931 86.5354 45.8813 89.3917 40.1735Z" fill="#E5ACA2"/>
<path d="M65.144 72.5125L63.0529 70.5663C61.8741 69.4693 60.0396 69.4985 58.8964 70.6324L58.3847 71.14C57.5454 71.9724 56.2955 72.2344 55.1926 71.8091L53.7953 71.2702C52.6339 70.8223 51.8697 69.7037 51.8748 68.4589L51.8761 68.1342C51.8829 66.4774 50.5452 65.1287 48.8884 65.122L44.8394 65.1054C43.1826 65.0986 41.834 66.4363 41.8272 68.0931L41.8245 68.7443C41.8201 69.8209 41.2392 70.8125 40.3023 71.3428L40.201 71.4002C39.106 72.02 37.7405 71.8906 36.7814 71.0762L35.9543 70.3739C34.7189 69.3249 32.8738 69.4467 31.787 70.649L29.1429 73.574C28.1151 74.7111 28.1096 76.4401 29.1303 77.5835L30.5221 79.1427C31.2634 79.9732 31.4839 81.146 31.0948 82.189L30.724 83.183C30.2846 84.3606 29.1578 85.1395 27.9009 85.1343L27.1105 85.1311C25.4536 85.1243 24.105 86.462 24.0982 88.1188L24.0837 91.6776C24.0769 93.3344 25.4146 94.683 27.0714 94.6898L27.9917 94.6936C29.1836 94.6984 30.2595 95.4084 30.7328 96.5023L30.9587 97.0244C31.388 98.0167 31.2501 99.1632 30.5979 100.025L30.4208 100.26C29.4552 101.536 29.6619 103.346 30.8906 104.372L33.9812 106.953C35.2267 107.993 37.0733 107.854 38.1494 106.64L38.4842 106.262C39.2266 105.424 40.3736 105.07 41.4594 105.342L42.2805 105.548C43.6149 105.882 44.5506 107.082 44.5506 108.458L44.5506 109.252C44.5506 110.908 45.8938 112.252 47.5506 112.252L51.227 112.252C52.8372 112.252 54.1602 110.98 54.2246 109.371L54.2837 107.895C54.3274 106.803 54.9618 105.82 55.9396 105.332L57.9441 104.329C59.0342 103.784 60.3458 103.953 61.2625 104.756L62.2437 105.616C63.4911 106.708 65.3884 106.582 66.4795 105.333L68.0562 103.529C69.2413 102.172 68.9727 100.085 67.483 99.073L66.4874 98.3967C65.3272 97.6085 64.868 96.1216 65.3817 94.8164L65.4852 94.5536C65.9383 93.4023 67.0517 92.6473 68.289 92.6523L68.3838 92.6527C70.0407 92.6595 71.3893 91.3219 71.396 89.665L71.4116 85.8612C71.4184 84.2043 70.0807 82.8557 68.4239 82.8489L67.4454 82.8449C66.2833 82.8402 65.2285 82.1647 64.738 81.1112L64.43 80.4498C63.9249 79.365 64.1129 78.0836 64.9083 77.1895L65.3415 76.7026C66.4253 75.4843 66.3376 73.6234 65.144 72.5125Z" stroke="black" stroke-width="4"/>
<path d="M97.1417 93.4847L96.0064 92.6453C94.9739 91.8819 93.5215 92.078 92.7286 93.0879C92.1462 93.8296 91.1799 94.1561 90.2669 93.9197L89.562 93.7371C88.6665 93.5051 88.0061 92.7459 87.9006 91.8269C87.7598 90.5997 86.6508 89.719 85.4236 89.8598L83.1146 90.1247C81.8024 90.2752 80.8607 91.4609 81.0114 92.7731L81.0281 92.9191C81.1152 93.6773 80.7912 94.4244 80.1782 94.8791C79.4519 95.4177 78.4651 95.4409 77.7143 94.937L77.4957 94.7903C76.361 94.0288 74.8257 94.3149 74.0416 95.4339L73.1695 96.6786C72.2972 97.9236 72.494 99.6243 73.6277 100.637L73.8731 100.856C74.6063 101.512 74.9206 102.516 74.6916 103.472L74.6461 103.662C74.4117 104.64 73.5906 105.368 72.591 105.482C71.2775 105.633 70.3349 106.82 70.4857 108.134L70.6951 109.958C70.8498 111.305 72.0811 112.271 73.4287 112.117C74.3884 112.006 75.3305 112.476 75.8127 113.313L75.8631 113.401C76.2637 114.096 76.2631 114.952 75.8617 115.647C75.2664 116.677 75.5773 117.993 76.5707 118.648L78.6121 119.993C79.6533 120.68 81.0524 120.406 81.7578 119.378C82.2445 118.668 83.0879 118.292 83.9409 118.404L84.1272 118.428C85.2222 118.571 86.0804 119.439 86.2107 120.536C86.3681 121.859 87.5686 122.805 88.8921 122.647L90.4198 122.466C91.896 122.29 92.97 120.98 92.853 119.499C92.7739 118.497 93.2439 117.531 94.081 116.974L94.7367 116.539C95.624 115.949 96.7813 115.961 97.6567 116.568C98.8463 117.394 100.481 117.088 101.292 115.888L101.654 115.352C102.503 114.097 102.071 112.383 100.73 111.679L100.516 111.566C99.597 111.084 99.131 110.032 99.3906 109.028L99.412 108.945C99.6305 108.099 100.347 107.476 101.215 107.376C102.373 107.243 103.205 106.197 103.072 105.038L102.814 102.792C102.657 101.428 101.425 100.449 100.061 100.606C99.1012 100.716 98.1643 100.259 97.6592 99.4354L97.6199 99.3714C97.1257 98.5651 97.153 97.5434 97.6895 96.7647C98.4212 95.7026 98.1788 94.2516 97.1417 93.4847Z" stroke="black" stroke-width="4"/>
<circle cx="48.2269" cy="88.2316" r="8.29408" stroke="black" stroke-width="4"/>
<path d="M92.2172 105.301C92.5715 108.281 90.5195 110.867 87.7771 111.194C85.0347 111.52 82.4334 109.486 82.0792 106.507C81.7249 103.527 83.7769 100.941 86.5193 100.615C89.2617 100.288 91.863 102.322 92.2172 105.301Z" stroke="black" stroke-width="4"/>
<path d="M137.96 79.7361C127.927 82.8795 110.846 83.0842 101.196 79.6247C96.7558 78.0327 94.5619 73.2788 95.3351 68.6252C99.3595 44.4035 138.385 44.1218 144.261 67.7803C145.531 72.8949 142.988 78.1604 137.96 79.7361Z" stroke="black" stroke-width="4"/>
<path d="M122.77 15.4289C134.516 18.2696 133.214 32.4329 126.116 39.7968C122.816 43.2207 117.183 43.4886 113.736 40.2119C106.329 33.1685 107.766 19.1131 117.384 15.6483C119.101 15.0297 120.996 14.9999 122.77 15.4289Z" stroke="black" stroke-width="4"/>
</svg>
