<svg width="1680" height="463" viewBox="0 0 1680 463" fill="none" xmlns="http://www.w3.org/2000/svg">
<g clip-path="url(#clip0)">
<path fill-rule="evenodd" clip-rule="evenodd" d="M882.416 15.2748C1061.4 19.2485 1252.28 12.1964 1400.58 37.9683C1550.8 64.0737 1603.65 111.292 1677.87 153.513C1762.18 201.47 1900.14 248.412 1861.24 299.998C1820.8 353.617 1668.11 402.932 1472.68 425.621C1288.65 446.987 1084.34 410.357 882.416 413.64C657.344 417.299 444.111 466.957 234.589 445.751C17.314 423.76 -123.391 364.466 -175.709 306.545C-225.968 250.903 -123.477 196.009 -38.7543 143.134C39.7708 94.1274 111.253 38.7672 294.005 13.401C470.467 -11.0921 682.106 10.8277 882.416 15.2748Z" fill="#A1BBC4"/>
</g>
<defs>
<clipPath id="clip0">
<rect width="1680" height="463" fill="white"/>
</clipPath>
</defs>
</svg>
