<svg width="1680" height="618" viewBox="0 0 1680 618" fill="none" xmlns="http://www.w3.org/2000/svg">
<g clip-path="url(#clip0)">
<path fill-rule="evenodd" clip-rule="evenodd" d="M882.416 19.9757C1061.4 25.3565 1252.28 15.8071 1400.58 50.7054C1550.8 86.0552 1603.65 149.994 1677.87 207.167C1762.18 272.106 1900.14 335.672 1861.24 405.525C1820.8 478.132 1668.11 544.909 1472.68 575.633C1288.65 604.566 1084.34 554.964 882.416 559.41C657.344 564.365 444.111 631.608 234.589 602.892C17.314 573.114 -123.391 492.822 -175.709 414.391C-225.968 339.045 -123.477 264.711 -38.7543 193.113C39.7708 126.752 111.253 51.7872 294.005 17.4383C470.467 -15.7282 682.106 13.9537 882.416 19.9757Z" fill="#A1BBC4"/>
</g>
<defs>
<clipPath id="clip0">
<rect width="1680" height="618" fill="white"/>
</clipPath>
</defs>
</svg>
