<svg width="100" height="100" viewBox="0 0 100 100" fill="none" xmlns="http://www.w3.org/2000/svg">
<path d="M32.8388 15.5745L36.4923 13.6586C51.7032 5.6818 70.4152 9.36054 81.4742 22.5019C86.3425 28.2869 89.4154 35.4348 89.7063 42.99C89.9533 49.4068 89.8182 54.9751 89.2734 61.1367C88.5903 68.8628 85.0268 76.0098 79.7222 81.6685L77.3962 84.1498C68.4 93.7465 54.5131 96.9874 42.1984 92.3643C33.6351 89.1495 26.819 82.481 23.4174 73.9902L17.104 58.2307C16.2132 56.0069 15.5604 53.695 15.1566 51.3338C12.6784 36.8416 19.8181 22.4027 32.8388 15.5745Z" fill="#EC9C90"/>
<path d="M73.2805 14H26.042C23.2806 14 21.042 16.2386 21.042 19V86C21.042 88.7614 23.2806 91 26.042 91H73.2805C76.0419 91 78.2805 88.7614 78.2805 86V19C78.2805 16.2386 76.0419 14 73.2805 14Z" stroke="black" stroke-width="4"/>
<path d="M28.0713 23.5H70.247M40.5987 36.5806H70.247M40.5987 49.9032H70.247M40.5987 63.4516H70.247M28.0713 75.6452H70.247M31.0988 66.6129V66.6129C32.7708 66.6129 34.1262 65.2575 34.1262 63.5854V63.3178C34.1262 61.6458 32.7708 60.2903 31.0988 60.2903V60.2903C29.4267 60.2903 28.0713 61.6458 28.0713 63.3178V63.5854C28.0713 65.2575 29.4267 66.6129 31.0988 66.6129ZM31.0988 53.5161V53.5161C32.7708 53.5161 34.1262 52.1607 34.1262 50.4887V50.221C34.1262 48.549 32.7708 47.1935 31.0988 47.1935V47.1935C29.4267 47.1935 28.0713 48.549 28.0713 50.221V50.4887C28.0713 52.1607 29.4267 53.5161 31.0988 53.5161ZM34.1262 36.6726V37.1661C34.1262 38.8381 32.7708 40.1935 31.0988 40.1935V40.1935C29.4267 40.1935 28.0713 38.8381 28.0713 37.1661V36.6726C28.0713 35.0006 29.4267 33.6452 31.0988 33.6452V33.6452C32.7708 33.6452 34.1262 35.0006 34.1262 36.6726Z" stroke="black" stroke-width="4"/>
</svg>
