<svg width="1015" height="877" viewBox="0 0 1015 877" fill="none" xmlns="http://www.w3.org/2000/svg">
<g clip-path="url(#clip0_554_41765)">
<path fill-rule="evenodd" clip-rule="evenodd" d="M889.199 433.775C880.713 370.051 867.668 305.506 891.109 245.645C915.101 184.379 957.931 125.888 1019.18 101.848C1077.4 78.9965 1139.6 111.497 1200.86 124.064C1254.4 135.046 1311.09 136.559 1353.91 170.509C1398.15 205.575 1426.16 257.336 1438.47 312.425C1450.8 367.609 1450.54 428.072 1422.42 477.129C1395.61 523.905 1339.04 539.417 1292.63 566.855C1246.08 594.375 1204.14 627.31 1151.04 637.567C1081.2 651.059 999.016 678.107 942.878 634.415C886.873 590.826 898.566 504.123 889.199 433.775Z" fill="#F1C9BB"/>
<path fill-rule="evenodd" clip-rule="evenodd" d="M1056.31 503C1118.04 502.968 1179.66 511.099 1231.35 535.931C1284.91 561.657 1341.86 596.545 1348.5 643.353C1355.01 689.158 1296.24 723.487 1263.55 762.763C1239.62 791.523 1220.93 822.576 1183.32 841.852C1146.24 860.861 1101.5 869.221 1056.31 868.996C1011.36 868.772 966.719 860.224 930.537 840.593C894.526 821.054 875.753 790.759 857.012 760.862C835.61 726.722 810.362 692.862 814.437 655.385C819.216 611.426 835.922 564.796 881.447 536.115C928.312 506.589 994.612 503.033 1056.31 503Z" fill="#C07756"/>
<path fill-rule="evenodd" clip-rule="evenodd" d="M1415.81 815.279C1423.73 859.432 1424.6 904.469 1414.43 948.159C1404.36 991.395 1392.34 1039.35 1357.3 1066.61C1322.09 1094.01 1272.22 1098.06 1227.84 1093.34C1189.81 1089.29 1163.29 1030.66 1126.79 1042.08C1068.65 1060.27 1055.16 1153.23 995.597 1166C948.213 1176.15 905.493 1129.76 869.6 1097.2C831.165 1062.33 791.4 1022.34 781.146 971.47C770.923 920.749 785.302 864.769 814.084 821.772C841.361 781.024 899.83 775.497 935.121 741.452C964.154 713.444 960.916 647.529 1000.82 641.628C1047.73 634.692 1081.95 687.396 1121.24 713.931C1142.98 728.611 1155.09 766.34 1181.16 763.409C1248.79 755.804 1300.96 671.56 1367.41 686.25C1412.84 696.29 1407.59 769.493 1415.81 815.279Z" stroke="white" stroke-width="5"/>
<path fill-rule="evenodd" clip-rule="evenodd" d="M212.061 -99.1145C175.289 -121.442 152.551 -166.115 110.346 -175.376C63.6752 -185.617 8.41042 -183.739 -32.1682 -152.706C-72.6883 -121.719 -72.1639 -59.1715 -99.4214 -14.9573C-130.548 35.533 -195.798 66.9114 -203.466 125.154C-211.052 182.785 -175.584 236.632 -137.62 275.205C-102.512 310.876 -47.7136 310.932 -1.8818 329.972C40.6852 347.656 78.3143 402.034 123.046 383.496C172.335 363.069 161.087 270.69 207.58 243.165C262.131 210.868 336.314 267.015 386.679 227.413C432.928 191.048 455.077 115.448 440.88 59.7248C426.285 2.44045 362.121 -18.4788 315.847 -50.6013C283.879 -72.7922 245.287 -78.941 212.061 -99.1145Z" fill="#AEC1C2"/>
<path fill-rule="evenodd" clip-rule="evenodd" d="M-78.4052 -248.672C-62.5098 -308.307 6.45754 -345.204 73.1107 -352.101C136.621 -358.673 196.543 -307.588 259.914 -283.682C308.853 -265.22 361.03 -259.033 403.19 -227.582C446.412 -195.34 475.4 -151.13 498.971 -105.351C524.66 -55.4608 567.383 3.07833 545.134 48.0903C522.022 94.8474 446.241 87.1888 394.501 106.002C359.708 118.652 329.139 136.638 290.85 140.548C251.888 144.527 211.363 144.1 172.747 128.649C132.726 112.635 99.9667 83.8269 70.8081 52.5005C38.5253 17.8175 15.9458 -20.6732 -4.32493 -61.5878C-35.1138 -123.732 -94.5934 -187.939 -78.4052 -248.672Z" stroke="white" stroke-width="5"/>
<path d="M268.216 385.632C270.733 385.333 272.675 384.757 274.04 383.904V348.192C270.755 348.235 267.96 348.384 265.656 348.64C264.888 349.707 264.291 350.944 263.864 352.352C263.48 353.717 263.267 354.955 263.224 356.064C262.925 356.107 262.477 356.128 261.88 356.128C261.197 356.128 260.707 356.107 260.408 356.064V345.056C266.296 345.227 271.757 345.312 276.792 345.312C280.163 345.312 283.405 345.291 286.52 345.248C289.677 345.163 291.917 345.099 293.24 345.056V356.064C292.941 356.107 292.493 356.128 291.896 356.128C291.256 356.128 290.765 356.107 290.424 356.064C290.125 352.992 289.357 350.539 288.12 348.704C285.347 348.405 282.531 348.235 279.672 348.192V383.904C281.165 384.715 283.256 385.291 285.944 385.632L285.624 388H267.832L268.216 385.632ZM293.974 385.696C294.955 385.525 295.744 385.333 296.342 385.12C296.939 384.907 297.558 384.544 298.198 384.032V365.792C298.198 364.213 297.856 363.147 297.174 362.592C296.534 361.995 295.382 361.653 293.718 361.568L293.91 359.712C295.232 359.456 297.131 358.944 299.606 358.176L301.718 357.536L302.87 358.112L303.51 362.592C304.491 361.099 305.643 359.883 306.966 358.944C308.288 358.005 309.696 357.536 311.19 357.536C312.726 357.536 314.048 357.984 315.158 358.88C316.31 359.776 316.886 361.056 316.886 362.72C316.886 363.787 316.566 364.725 315.926 365.536C315.328 366.347 314.518 366.752 313.494 366.752C312.768 366.752 312.086 366.581 311.446 366.24C310.806 365.856 310.4 365.365 310.23 364.768C310.4 364.597 310.55 364.341 310.678 364C310.806 363.616 310.87 363.275 310.87 362.976C310.87 361.696 310.272 361.056 309.078 361.056C308.31 361.056 307.499 361.461 306.646 362.272C305.792 363.083 305.067 364.128 304.47 365.408C303.915 366.645 303.638 367.904 303.638 369.184V384.032C304.79 384.8 306.475 385.397 308.694 385.824L308.438 388H293.718L293.974 385.696ZM325.454 388.448C322.809 388.448 320.761 387.808 319.31 386.528C317.859 385.248 317.134 383.456 317.134 381.152C317.134 378.379 318.158 376.203 320.206 374.624C322.254 373.003 325.219 372.064 329.102 371.808L334.35 371.424V366.24C334.35 364.107 333.902 362.549 333.006 361.568C332.11 360.587 330.659 360.096 328.654 360.096C326.947 360.096 325.625 360.352 324.686 360.864C323.79 361.376 323.342 362.08 323.342 362.976C323.342 364.085 323.982 364.875 325.262 365.344C325.262 366.325 324.942 367.093 324.302 367.648C323.705 368.16 322.809 368.416 321.614 368.416C320.505 368.416 319.609 368.075 318.926 367.392C318.243 366.709 317.902 365.813 317.902 364.704C317.902 362.528 318.862 360.8 320.782 359.52C322.745 358.197 325.369 357.536 328.654 357.536C332.153 357.536 334.883 358.304 336.846 359.84C338.809 361.376 339.79 363.509 339.79 366.24V384.096C340.174 384.395 340.793 384.715 341.646 385.056C342.499 385.397 343.374 385.653 344.27 385.824L344.014 388H335.182L334.542 385.12C333.219 386.357 331.833 387.232 330.382 387.744C328.931 388.213 327.289 388.448 325.454 388.448ZM327.054 385.824C328.249 385.824 329.422 385.547 330.574 384.992C331.726 384.395 332.985 383.435 334.35 382.112V374.048L329.23 374.496C327.225 374.667 325.646 375.307 324.494 376.416C323.342 377.483 322.766 378.869 322.766 380.576C322.766 384.075 324.195 385.824 327.054 385.824ZM360.189 388.448C355.367 388.448 351.911 387.147 349.821 384.544C347.73 381.899 346.685 377.973 346.685 372.768C346.77 367.733 347.965 363.936 350.269 361.376C352.573 358.816 355.965 357.536 360.445 357.536C363.389 357.536 365.757 358.176 367.549 359.456C369.383 360.693 370.301 362.315 370.301 364.32C370.301 365.301 369.959 366.176 369.277 366.944C368.637 367.712 367.847 368.096 366.909 368.096C366.098 368.096 365.394 367.883 364.797 367.456C364.199 367.029 363.794 366.475 363.581 365.792C364.135 364.896 364.413 364.128 364.413 363.488C364.413 362.379 364.05 361.504 363.325 360.864C362.599 360.181 361.639 359.84 360.445 359.84C357.415 359.84 355.346 360.992 354.237 363.296C353.17 365.6 352.637 368.757 352.637 372.768C352.637 375.541 352.807 377.803 353.149 379.552C353.533 381.301 354.279 382.709 355.389 383.776C356.541 384.8 358.247 385.312 360.509 385.312C362.087 385.312 363.581 385.035 364.989 384.48C366.439 383.883 367.655 383.157 368.637 382.304L370.301 384.224C369.106 385.419 367.613 386.421 365.821 387.232C364.071 388.043 362.194 388.448 360.189 388.448ZM373.366 385.696C374.347 385.525 375.137 385.333 375.734 385.12C376.331 384.907 376.95 384.565 377.59 384.096V365.664C377.59 364.085 377.249 363.019 376.566 362.464C375.926 361.867 374.774 361.525 373.11 361.44L373.302 359.584C375.009 359.285 376.758 358.859 378.55 358.304C380.385 357.749 381.451 357.429 381.75 357.344L383.03 358.048V384.096C384.097 384.864 385.59 385.44 387.51 385.824L387.254 388H373.11L373.366 385.696ZM379.574 352.608C377.355 352.608 376.246 351.371 376.246 348.896C376.246 346.421 377.355 345.184 379.574 345.184C380.683 345.184 381.515 345.504 382.07 346.144C382.667 346.784 382.966 347.701 382.966 348.896C382.966 350.091 382.667 351.008 382.07 351.648C381.515 352.288 380.683 352.608 379.574 352.608ZM403.468 388.448C398.689 388.448 395.255 387.147 393.164 384.544C391.116 381.899 390.092 377.973 390.092 372.768C390.092 368.032 391.223 364.32 393.484 361.632C395.788 358.901 399.116 357.536 403.468 357.536C407.692 357.536 410.657 358.645 412.364 360.864C414.071 363.083 414.988 366.368 415.116 370.72L413.772 372.448H395.98V372.768C395.98 375.541 396.151 377.803 396.492 379.552C396.833 381.301 397.58 382.709 398.732 383.776C399.884 384.8 401.591 385.312 403.852 385.312C405.559 385.312 407.116 384.992 408.524 384.352C409.932 383.712 411.105 383.029 412.044 382.304L413.644 384.224C412.577 385.205 411.191 386.165 409.484 387.104C407.777 388 405.772 388.448 403.468 388.448ZM409.356 369.632C409.356 366.261 408.908 363.829 408.012 362.336C407.159 360.843 405.559 360.096 403.212 360.096C400.78 360.096 398.988 360.992 397.836 362.784C396.684 364.533 396.065 366.965 395.98 370.08L409.356 369.632ZM431.573 385.632C434.005 385.376 435.946 384.8 437.397 383.904V349.344C435.818 348.491 433.77 347.915 431.253 347.616L431.509 345.312H443.861L458.197 380.128L472.021 345.312H484.245L483.925 347.616C481.578 347.872 479.615 348.448 478.037 349.344V383.904C479.445 384.715 481.514 385.291 484.245 385.632L483.989 388H466.197L466.517 385.632C467.754 385.504 468.821 385.312 469.717 385.056C470.655 384.8 471.551 384.416 472.405 383.904V354.144H472.149L459.157 388H455.381L441.749 353.568H441.493V383.904C442.986 384.8 445.055 385.376 447.701 385.632L447.445 388H431.253L431.573 385.632ZM495.489 388.448C492.844 388.448 490.796 387.808 489.345 386.528C487.894 385.248 487.169 383.456 487.169 381.152C487.169 378.379 488.193 376.203 490.241 374.624C492.289 373.003 495.254 372.064 499.137 371.808L504.385 371.424V366.24C504.385 364.107 503.937 362.549 503.041 361.568C502.145 360.587 500.694 360.096 498.689 360.096C496.982 360.096 495.66 360.352 494.721 360.864C493.825 361.376 493.377 362.08 493.377 362.976C493.377 364.085 494.017 364.875 495.297 365.344C495.297 366.325 494.977 367.093 494.337 367.648C493.74 368.16 492.844 368.416 491.649 368.416C490.54 368.416 489.644 368.075 488.961 367.392C488.278 366.709 487.937 365.813 487.937 364.704C487.937 362.528 488.897 360.8 490.817 359.52C492.78 358.197 495.404 357.536 498.689 357.536C502.188 357.536 504.918 358.304 506.881 359.84C508.844 361.376 509.825 363.509 509.825 366.24V384.096C510.209 384.395 510.828 384.715 511.681 385.056C512.534 385.397 513.409 385.653 514.305 385.824L514.049 388H505.217L504.577 385.12C503.254 386.357 501.868 387.232 500.417 387.744C498.966 388.213 497.324 388.448 495.489 388.448ZM497.089 385.824C498.284 385.824 499.457 385.547 500.609 384.992C501.761 384.395 503.02 383.435 504.385 382.112V374.048L499.265 374.496C497.26 374.667 495.681 375.307 494.529 376.416C493.377 377.483 492.801 378.869 492.801 380.576C492.801 384.075 494.23 385.824 497.089 385.824ZM517.104 385.696C518.085 385.525 518.874 385.333 519.472 385.12C520.069 384.907 520.688 384.544 521.328 384.032V365.792C521.328 364.213 520.986 363.147 520.304 362.592C519.664 361.995 518.512 361.653 516.848 361.568L517.04 359.712C518.362 359.456 520.261 358.944 522.736 358.176L524.848 357.536L526 358.112L526.64 362.592C527.621 361.099 528.773 359.883 530.096 358.944C531.418 358.005 532.826 357.536 534.32 357.536C535.856 357.536 537.178 357.984 538.288 358.88C539.44 359.776 540.016 361.056 540.016 362.72C540.016 363.787 539.696 364.725 539.056 365.536C538.458 366.347 537.648 366.752 536.624 366.752C535.898 366.752 535.216 366.581 534.576 366.24C533.936 365.856 533.53 365.365 533.36 364.768C533.53 364.597 533.68 364.341 533.808 364C533.936 363.616 534 363.275 534 362.976C534 361.696 533.402 361.056 532.208 361.056C531.44 361.056 530.629 361.461 529.776 362.272C528.922 363.083 528.197 364.128 527.6 365.408C527.045 366.645 526.768 367.904 526.768 369.184V384.032C527.92 384.8 529.605 385.397 531.824 385.824L531.568 388H516.848L517.104 385.696ZM541.839 385.696C542.82 385.525 543.609 385.333 544.207 385.12C544.804 384.907 545.423 384.565 546.063 384.096V365.664C546.063 364.085 545.721 363.019 545.039 362.464C544.399 361.867 543.247 361.525 541.583 361.44L541.775 359.584C543.481 359.285 545.231 358.859 547.023 358.304C548.857 357.749 549.924 357.429 550.223 357.344L551.503 358.048V384.096C552.569 384.864 554.063 385.44 555.983 385.824L555.727 388H541.583L541.839 385.696ZM548.047 352.608C545.828 352.608 544.719 351.371 544.719 348.896C544.719 346.421 545.828 345.184 548.047 345.184C549.156 345.184 549.988 345.504 550.543 346.144C551.14 346.784 551.439 347.701 551.439 348.896C551.439 350.091 551.14 351.008 550.543 351.648C549.988 352.288 549.156 352.608 548.047 352.608ZM571.94 388.448C567.162 388.448 563.727 387.147 561.636 384.544C559.588 381.899 558.564 377.973 558.564 372.768C558.564 368.032 559.695 364.32 561.956 361.632C564.26 358.901 567.588 357.536 571.94 357.536C576.164 357.536 579.13 358.645 580.836 360.864C582.543 363.083 583.46 366.368 583.588 370.72L582.244 372.448H564.452V372.768C564.452 375.541 564.623 377.803 564.964 379.552C565.306 381.301 566.052 382.709 567.204 383.776C568.356 384.8 570.063 385.312 572.324 385.312C574.031 385.312 575.588 384.992 576.996 384.352C578.404 383.712 579.578 383.029 580.516 382.304L582.116 384.224C581.05 385.205 579.663 386.165 577.956 387.104C576.25 388 574.244 388.448 571.94 388.448ZM577.828 369.632C577.828 366.261 577.38 363.829 576.484 362.336C575.631 360.843 574.031 360.096 571.684 360.096C569.252 360.096 567.46 360.992 566.308 362.784C565.156 364.533 564.538 366.965 564.452 370.08L577.828 369.632ZM600.109 385.632C601.304 385.504 602.37 385.312 603.309 385.056C604.248 384.8 605.122 384.416 605.933 383.904V349.344C604.354 348.491 602.285 347.915 599.725 347.616L600.045 345.312H617.901L617.517 347.616C615.17 347.872 613.208 348.448 611.629 349.344V383.904C613.165 384.757 615.256 385.333 617.901 385.632L617.581 388H599.725L600.109 385.632ZM626.925 388C626.882 387.488 626.754 386.933 626.541 386.336C626.37 385.739 626.157 385.269 625.901 384.928L612.269 365.728L624.301 350.752C624.557 350.24 624.685 349.813 624.685 349.472C624.685 348.917 624.301 348.491 623.533 348.192C622.808 347.851 621.869 347.659 620.717 347.616L621.101 345.312H636.141L635.885 347.616C634.648 347.701 633.56 347.872 632.621 348.128C631.725 348.384 630.872 348.896 630.061 349.664L618.157 364.576L632.109 383.904C633.346 384.8 635.16 385.355 637.549 385.568L637.165 388H626.925ZM639.654 385.696C640.635 385.525 641.424 385.333 642.022 385.12C642.619 384.907 643.238 384.544 643.878 384.032V365.792C643.878 364.213 643.536 363.147 642.854 362.592C642.214 361.995 641.062 361.653 639.398 361.568L639.59 359.712C640.912 359.456 642.811 358.944 645.286 358.176L647.398 357.536L648.55 358.112L649.19 362.592C650.171 361.099 651.323 359.883 652.646 358.944C653.968 358.005 655.376 357.536 656.87 357.536C658.406 357.536 659.728 357.984 660.838 358.88C661.99 359.776 662.566 361.056 662.566 362.72C662.566 363.787 662.246 364.725 661.606 365.536C661.008 366.347 660.198 366.752 659.174 366.752C658.448 366.752 657.766 366.581 657.126 366.24C656.486 365.856 656.08 365.365 655.91 364.768C656.08 364.597 656.23 364.341 656.358 364C656.486 363.616 656.55 363.275 656.55 362.976C656.55 361.696 655.952 361.056 654.758 361.056C653.99 361.056 653.179 361.461 652.326 362.272C651.472 363.083 650.747 364.128 650.15 365.408C649.595 366.645 649.318 367.904 649.318 369.184V384.032C650.47 384.8 652.155 385.397 654.374 385.824L654.118 388H639.398L639.654 385.696ZM676.443 388.448C671.664 388.448 668.23 387.147 666.139 384.544C664.091 381.899 663.067 377.973 663.067 372.768C663.067 368.032 664.198 364.32 666.459 361.632C668.763 358.901 672.091 357.536 676.443 357.536C680.667 357.536 683.632 358.645 685.339 360.864C687.046 363.083 687.963 366.368 688.091 370.72L686.747 372.448H668.955V372.768C668.955 375.541 669.126 377.803 669.467 379.552C669.808 381.301 670.555 382.709 671.707 383.776C672.859 384.8 674.566 385.312 676.827 385.312C678.534 385.312 680.091 384.992 681.499 384.352C682.907 383.712 684.08 383.029 685.019 382.304L686.619 384.224C685.552 385.205 684.166 386.165 682.459 387.104C680.752 388 678.747 388.448 676.443 388.448ZM682.331 369.632C682.331 366.261 681.883 363.829 680.987 362.336C680.134 360.843 678.534 360.096 676.187 360.096C673.755 360.096 671.963 360.992 670.811 362.784C669.659 364.533 669.04 366.965 668.955 370.08L682.331 369.632ZM691.061 385.696C692.042 385.525 692.832 385.333 693.429 385.12C694.026 384.907 694.645 384.565 695.285 384.096V365.664C695.285 364.085 694.944 363.019 694.261 362.464C693.621 361.867 692.469 361.525 690.805 361.44L690.997 359.584C692.704 359.285 694.453 358.859 696.245 358.304C698.08 357.749 699.146 357.429 699.445 357.344L700.725 358.048V384.096C701.792 384.864 703.285 385.44 705.205 385.824L704.949 388H690.805L691.061 385.696ZM697.269 352.608C695.05 352.608 693.941 351.371 693.941 348.896C693.941 346.421 695.05 345.184 697.269 345.184C698.378 345.184 699.21 345.504 699.765 346.144C700.362 346.784 700.661 347.701 700.661 348.896C700.661 350.091 700.362 351.008 699.765 351.648C699.21 352.288 698.378 352.608 697.269 352.608ZM717.707 388.384C716.214 388.384 714.486 388.149 712.523 387.68C710.603 387.168 709.152 386.592 708.171 385.952V378.08L711.563 377.632C711.734 379.424 711.926 380.853 712.139 381.92C712.395 382.944 712.779 383.925 713.291 384.864C714.656 385.291 716.299 385.504 718.219 385.504C719.968 385.504 721.398 385.035 722.507 384.096C723.616 383.157 724.171 381.984 724.171 380.576C724.171 379.168 723.616 378.123 722.507 377.44C721.44 376.715 719.734 375.947 717.387 375.136C715.424 374.453 713.824 373.792 712.587 373.152C711.392 372.512 710.368 371.595 709.515 370.4C708.662 369.205 708.235 367.669 708.235 365.792C708.235 363.232 709.174 361.227 711.051 359.776C712.971 358.325 715.595 357.6 718.923 357.6C720.715 357.6 722.358 357.877 723.851 358.432C725.387 358.987 726.603 359.755 727.499 360.736C728.395 361.675 728.843 362.72 728.843 363.872C728.843 366.091 727.862 367.2 725.899 367.2C725.088 367.2 724.406 367.072 723.851 366.816C723.339 366.517 722.87 366.069 722.443 365.472C723.168 364.96 723.531 364.192 723.531 363.168C723.531 362.272 723.04 361.547 722.059 360.992C721.12 360.437 719.947 360.16 718.539 360.16C716.832 360.16 715.488 360.544 714.507 361.312C713.526 362.08 713.035 363.125 713.035 364.448C713.035 365.515 713.355 366.411 713.995 367.136C714.678 367.819 715.488 368.373 716.427 368.8C717.366 369.227 718.71 369.739 720.459 370.336C722.294 371.019 723.787 371.68 724.939 372.32C726.134 372.96 727.136 373.856 727.947 375.008C728.758 376.117 729.163 377.547 729.163 379.296C729.163 382.155 728.16 384.395 726.155 386.016C724.15 387.595 721.334 388.384 717.707 388.384ZM742.13 388.384C740.636 388.384 738.908 388.149 736.946 387.68C735.026 387.168 733.575 386.592 732.594 385.952V378.08L735.986 377.632C736.156 379.424 736.348 380.853 736.562 381.92C736.818 382.944 737.202 383.925 737.714 384.864C739.079 385.291 740.722 385.504 742.642 385.504C744.391 385.504 745.82 385.035 746.93 384.096C748.039 383.157 748.594 381.984 748.594 380.576C748.594 379.168 748.039 378.123 746.93 377.44C745.863 376.715 744.156 375.947 741.81 375.136C739.847 374.453 738.247 373.792 737.01 373.152C735.815 372.512 734.791 371.595 733.938 370.4C733.084 369.205 732.658 367.669 732.658 365.792C732.658 363.232 733.596 361.227 735.474 359.776C737.394 358.325 740.018 357.6 743.346 357.6C745.138 357.6 746.78 357.877 748.274 358.432C749.81 358.987 751.026 359.755 751.922 360.736C752.818 361.675 753.266 362.72 753.266 363.872C753.266 366.091 752.284 367.2 750.322 367.2C749.511 367.2 748.828 367.072 748.274 366.816C747.762 366.517 747.292 366.069 746.866 365.472C747.591 364.96 747.954 364.192 747.954 363.168C747.954 362.272 747.463 361.547 746.482 360.992C745.543 360.437 744.37 360.16 742.962 360.16C741.255 360.16 739.911 360.544 738.93 361.312C737.948 362.08 737.458 363.125 737.458 364.448C737.458 365.515 737.778 366.411 738.418 367.136C739.1 367.819 739.911 368.373 740.85 368.8C741.788 369.227 743.132 369.739 744.882 370.336C746.716 371.019 748.21 371.68 749.362 372.32C750.556 372.96 751.559 373.856 752.37 375.008C753.18 376.117 753.586 377.547 753.586 379.296C753.586 382.155 752.583 384.395 750.578 386.016C748.572 387.595 745.756 388.384 742.13 388.384Z" fill="black"/>
<path d="M397.376 434.224C397.376 436.08 396.736 437.627 395.456 438.864C394.197 440.08 392.267 440.688 389.664 440.688H385.376V450H382.464V427.696H389.664C392.181 427.696 394.091 428.304 395.392 429.52C396.715 430.736 397.376 432.304 397.376 434.224ZM389.664 438.288C391.285 438.288 392.48 437.936 393.248 437.232C394.016 436.528 394.4 435.525 394.4 434.224C394.4 431.472 392.821 430.096 389.664 430.096H385.376V438.288H389.664ZM402.627 435.312C403.139 434.309 403.865 433.531 404.803 432.976C405.763 432.421 406.926 432.144 408.291 432.144V435.152H407.523C404.259 435.152 402.627 436.923 402.627 440.464V450H399.715V432.464H402.627V435.312ZM418.021 450.288C416.378 450.288 414.885 449.915 413.541 449.168C412.218 448.421 411.173 447.365 410.405 446C409.658 444.613 409.285 443.013 409.285 441.2C409.285 439.408 409.669 437.829 410.437 436.464C411.226 435.077 412.293 434.021 413.637 433.296C414.981 432.549 416.485 432.176 418.149 432.176C419.813 432.176 421.317 432.549 422.661 433.296C424.005 434.021 425.061 435.067 425.829 436.432C426.618 437.797 427.013 439.387 427.013 441.2C427.013 443.013 426.607 444.613 425.797 446C425.007 447.365 423.93 448.421 422.565 449.168C421.199 449.915 419.685 450.288 418.021 450.288ZM418.021 447.728C419.066 447.728 420.047 447.483 420.965 446.992C421.882 446.501 422.618 445.765 423.173 444.784C423.749 443.803 424.037 442.608 424.037 441.2C424.037 439.792 423.759 438.597 423.205 437.616C422.65 436.635 421.925 435.909 421.029 435.44C420.133 434.949 419.162 434.704 418.117 434.704C417.05 434.704 416.069 434.949 415.173 435.44C414.298 435.909 413.594 436.635 413.061 437.616C412.527 438.597 412.261 439.792 412.261 441.2C412.261 442.629 412.517 443.835 413.029 444.816C413.562 445.797 414.266 446.533 415.141 447.024C416.015 447.493 416.975 447.728 418.021 447.728ZM428.473 441.168C428.473 439.376 428.836 437.808 429.562 436.464C430.287 435.099 431.279 434.043 432.537 433.296C433.817 432.549 435.247 432.176 436.826 432.176C438.191 432.176 439.46 432.496 440.634 433.136C441.807 433.755 442.703 434.576 443.322 435.6V426.32H446.266V450H443.322V446.704C442.746 447.749 441.892 448.613 440.762 449.296C439.631 449.957 438.308 450.288 436.793 450.288C435.236 450.288 433.817 449.904 432.537 449.136C431.279 448.368 430.287 447.291 429.562 445.904C428.836 444.517 428.473 442.939 428.473 441.168ZM443.322 441.2C443.322 439.877 443.055 438.725 442.522 437.744C441.988 436.763 441.263 436.016 440.346 435.504C439.45 434.971 438.458 434.704 437.37 434.704C436.282 434.704 435.29 434.96 434.394 435.472C433.498 435.984 432.783 436.731 432.25 437.712C431.716 438.693 431.45 439.845 431.45 441.168C431.45 442.512 431.716 443.685 432.25 444.688C432.783 445.669 433.498 446.427 434.394 446.96C435.29 447.472 436.282 447.728 437.37 447.728C438.458 447.728 439.45 447.472 440.346 446.96C441.263 446.427 441.988 445.669 442.522 444.688C443.055 443.685 443.322 442.523 443.322 441.2ZM465.458 432.464V450H462.546V447.408C461.992 448.304 461.213 449.008 460.21 449.52C459.229 450.011 458.141 450.256 456.946 450.256C455.581 450.256 454.354 449.979 453.266 449.424C452.178 448.848 451.314 447.995 450.674 446.864C450.056 445.733 449.746 444.357 449.746 442.736V432.464H452.626V442.352C452.626 444.08 453.064 445.413 453.938 446.352C454.813 447.269 456.008 447.728 457.522 447.728C459.08 447.728 460.306 447.248 461.202 446.288C462.098 445.328 462.546 443.931 462.546 442.096V432.464H465.458ZM468.007 441.2C468.007 439.387 468.37 437.808 469.095 436.464C469.821 435.099 470.823 434.043 472.103 433.296C473.405 432.549 474.887 432.176 476.551 432.176C478.706 432.176 480.477 432.699 481.863 433.744C483.271 434.789 484.199 436.24 484.647 438.096H481.511C481.213 437.029 480.626 436.187 479.751 435.568C478.898 434.949 477.831 434.64 476.551 434.64C474.887 434.64 473.543 435.216 472.519 436.368C471.495 437.499 470.983 439.109 470.983 441.2C470.983 443.312 471.495 444.944 472.519 446.096C473.543 447.248 474.887 447.824 476.551 447.824C477.831 447.824 478.898 447.525 479.751 446.928C480.605 446.331 481.191 445.477 481.511 444.368H484.647C484.178 446.16 483.239 447.6 481.831 448.688C480.423 449.755 478.663 450.288 476.551 450.288C474.887 450.288 473.405 449.915 472.103 449.168C470.823 448.421 469.821 447.365 469.095 446C468.37 444.635 468.007 443.035 468.007 441.2ZM490.805 434.864V445.2C490.805 446.053 490.986 446.661 491.349 447.024C491.711 447.365 492.341 447.536 493.237 447.536H495.381V450H492.757C491.135 450 489.919 449.627 489.109 448.88C488.298 448.133 487.893 446.907 487.893 445.2V434.864H485.621V432.464H487.893V428.048H490.805V432.464H495.381V434.864H490.805ZM511.824 427.696C514.256 427.696 516.358 428.155 518.128 429.072C519.92 429.968 521.286 431.259 522.224 432.944C523.184 434.629 523.664 436.613 523.664 438.896C523.664 441.179 523.184 443.163 522.224 444.848C521.286 446.512 519.92 447.792 518.128 448.688C516.358 449.563 514.256 450 511.824 450H504.88V427.696H511.824ZM511.824 447.6C514.704 447.6 516.902 446.843 518.416 445.328C519.931 443.792 520.688 441.648 520.688 438.896C520.688 436.123 519.92 433.957 518.384 432.4C516.87 430.843 514.683 430.064 511.824 430.064H507.792V447.6H511.824ZM542.225 440.56C542.225 441.115 542.193 441.701 542.129 442.32H528.113C528.22 444.048 528.807 445.403 529.873 446.384C530.961 447.344 532.273 447.824 533.809 447.824C535.068 447.824 536.113 447.536 536.945 446.96C537.799 446.363 538.396 445.573 538.737 444.592H541.873C541.404 446.277 540.465 447.653 539.057 448.72C537.649 449.765 535.9 450.288 533.809 450.288C532.145 450.288 530.652 449.915 529.329 449.168C528.028 448.421 527.004 447.365 526.257 446C525.511 444.613 525.137 443.013 525.137 441.2C525.137 439.387 525.5 437.797 526.225 436.432C526.951 435.067 527.964 434.021 529.265 433.296C530.588 432.549 532.103 432.176 533.809 432.176C535.473 432.176 536.945 432.539 538.225 433.264C539.505 433.989 540.487 434.992 541.169 436.272C541.873 437.531 542.225 438.96 542.225 440.56ZM539.217 439.952C539.217 438.843 538.972 437.893 538.481 437.104C537.991 436.293 537.319 435.685 536.465 435.28C535.633 434.853 534.705 434.64 533.681 434.64C532.209 434.64 530.951 435.109 529.905 436.048C528.881 436.987 528.295 438.288 528.145 439.952H539.217ZM550.997 450.288C549.653 450.288 548.448 450.064 547.381 449.616C546.314 449.147 545.472 448.507 544.853 447.696C544.234 446.864 543.893 445.915 543.829 444.848H546.837C546.922 445.723 547.328 446.437 548.053 446.992C548.8 447.547 549.77 447.824 550.965 447.824C552.074 447.824 552.949 447.579 553.589 447.088C554.229 446.597 554.549 445.979 554.549 445.232C554.549 444.464 554.208 443.899 553.525 443.536C552.842 443.152 551.786 442.779 550.357 442.416C549.056 442.075 547.989 441.733 547.157 441.392C546.346 441.029 545.642 440.507 545.045 439.824C544.469 439.12 544.181 438.203 544.181 437.072C544.181 436.176 544.448 435.355 544.981 434.608C545.514 433.861 546.272 433.275 547.253 432.848C548.234 432.4 549.354 432.176 550.613 432.176C552.554 432.176 554.122 432.667 555.317 433.648C556.512 434.629 557.152 435.973 557.237 437.68H554.325C554.261 436.763 553.888 436.027 553.205 435.472C552.544 434.917 551.648 434.64 550.517 434.64C549.472 434.64 548.64 434.864 548.021 435.312C547.402 435.76 547.093 436.347 547.093 437.072C547.093 437.648 547.274 438.128 547.637 438.512C548.021 438.875 548.49 439.173 549.045 439.408C549.621 439.621 550.41 439.867 551.413 440.144C552.672 440.485 553.696 440.827 554.485 441.168C555.274 441.488 555.946 441.979 556.501 442.64C557.077 443.301 557.376 444.165 557.397 445.232C557.397 446.192 557.13 447.056 556.597 447.824C556.064 448.592 555.306 449.2 554.325 449.648C553.365 450.075 552.256 450.288 550.997 450.288ZM561.732 429.616C561.177 429.616 560.708 429.424 560.324 429.04C559.94 428.656 559.748 428.187 559.748 427.632C559.748 427.077 559.94 426.608 560.324 426.224C560.708 425.84 561.177 425.648 561.732 425.648C562.265 425.648 562.713 425.84 563.076 426.224C563.46 426.608 563.652 427.077 563.652 427.632C563.652 428.187 563.46 428.656 563.076 429.04C562.713 429.424 562.265 429.616 561.732 429.616ZM563.14 432.464V450H560.228V432.464H563.14ZM574.055 432.176C575.569 432.176 576.892 432.507 578.023 433.168C579.175 433.829 580.028 434.661 580.583 435.664V432.464H583.527V450.384C583.527 451.984 583.185 453.403 582.503 454.64C581.82 455.899 580.839 456.88 579.559 457.584C578.3 458.288 576.828 458.64 575.143 458.64C572.839 458.64 570.919 458.096 569.383 457.008C567.847 455.92 566.94 454.437 566.663 452.56H569.543C569.863 453.627 570.524 454.48 571.527 455.12C572.529 455.781 573.735 456.112 575.143 456.112C576.743 456.112 578.044 455.611 579.047 454.608C580.071 453.605 580.583 452.197 580.583 450.384V446.704C580.007 447.728 579.153 448.581 578.023 449.264C576.892 449.947 575.569 450.288 574.055 450.288C572.497 450.288 571.079 449.904 569.799 449.136C568.54 448.368 567.548 447.291 566.823 445.904C566.097 444.517 565.735 442.939 565.735 441.168C565.735 439.376 566.097 437.808 566.823 436.464C567.548 435.099 568.54 434.043 569.799 433.296C571.079 432.549 572.497 432.176 574.055 432.176ZM580.583 441.2C580.583 439.877 580.316 438.725 579.783 437.744C579.249 436.763 578.524 436.016 577.607 435.504C576.711 434.971 575.719 434.704 574.631 434.704C573.543 434.704 572.551 434.96 571.655 435.472C570.759 435.984 570.044 436.731 569.511 437.712C568.977 438.693 568.711 439.845 568.711 441.168C568.711 442.512 568.977 443.685 569.511 444.688C570.044 445.669 570.759 446.427 571.655 446.96C572.551 447.472 573.543 447.728 574.631 447.728C575.719 447.728 576.711 447.472 577.607 446.96C578.524 446.427 579.249 445.669 579.783 444.688C580.316 443.685 580.583 442.523 580.583 441.2ZM595.712 432.144C597.845 432.144 599.573 432.795 600.896 434.096C602.218 435.376 602.88 437.232 602.88 439.664V450H600V440.08C600 438.331 599.562 436.997 598.688 436.08C597.813 435.141 596.618 434.672 595.104 434.672C593.568 434.672 592.341 435.152 591.424 436.112C590.528 437.072 590.08 438.469 590.08 440.304V450H587.168V432.464H590.08V434.96C590.656 434.064 591.434 433.371 592.416 432.88C593.418 432.389 594.517 432.144 595.712 432.144ZM622.357 440.56C622.357 441.115 622.325 441.701 622.261 442.32H608.245C608.351 444.048 608.938 445.403 610.005 446.384C611.093 447.344 612.405 447.824 613.941 447.824C615.199 447.824 616.245 447.536 617.077 446.96C617.93 446.363 618.527 445.573 618.869 444.592H622.005C621.535 446.277 620.597 447.653 619.189 448.72C617.781 449.765 616.031 450.288 613.941 450.288C612.277 450.288 610.783 449.915 609.461 449.168C608.159 448.421 607.135 447.365 606.389 446C605.642 444.613 605.269 443.013 605.269 441.2C605.269 439.387 605.631 437.797 606.357 436.432C607.082 435.067 608.095 434.021 609.397 433.296C610.719 432.549 612.234 432.176 613.941 432.176C615.605 432.176 617.077 432.539 618.357 433.264C619.637 433.989 620.618 434.992 621.301 436.272C622.005 437.531 622.357 438.96 622.357 440.56ZM619.349 439.952C619.349 438.843 619.103 437.893 618.613 437.104C618.122 436.293 617.45 435.685 616.597 435.28C615.765 434.853 614.837 434.64 613.813 434.64C612.341 434.64 611.082 435.109 610.037 436.048C609.013 436.987 608.426 438.288 608.277 439.952H619.349ZM627.832 435.312C628.344 434.309 629.07 433.531 630.008 432.976C630.968 432.421 632.131 432.144 633.496 432.144V435.152H632.728C629.464 435.152 627.832 436.923 627.832 440.464V450H624.92V432.464H627.832V435.312Z" fill="#757575"/>
</g>
<defs>
<clipPath id="clip0_554_41765">
<rect width="1015" height="877" fill="white"/>
</clipPath>
</defs>
</svg>
