<svg width="541" height="271" viewBox="0 0 541 271" fill="none" xmlns="http://www.w3.org/2000/svg">
<path fill-rule="evenodd" clip-rule="evenodd" d="M226.218 -45.0149C282.904 -51.3652 340.207 -51.2106 389.886 -36.7593C441.348 -21.7869 496.742 0.12369 506.995 36.6685C517.028 72.4291 466.112 105.75 439.578 140.333C420.152 165.657 405.745 192.267 372.916 211.45C340.555 230.365 300.208 241.598 258.689 246.048C217.384 250.476 175.634 248.251 140.672 236.344C105.866 224.496 85.9418 202.326 66.0774 180.47C43.3964 155.512 17.203 131.172 17.6201 100.95C18.1091 65.5014 29.3171 26.7063 68.5742 -0.765791C108.993 -29.0481 169.566 -38.669 226.218 -45.0149Z" fill="#99BFFD"/>
<path fill-rule="evenodd" clip-rule="evenodd" d="M226.218 -45.0149C282.904 -51.3652 340.207 -51.2106 389.886 -36.7593C441.348 -21.7869 496.742 0.12369 506.995 36.6685C517.028 72.4291 466.112 105.75 439.578 140.333C420.152 165.657 405.745 192.267 372.916 211.45C340.555 230.365 300.208 241.598 258.689 246.048C217.384 250.476 175.634 248.251 140.672 236.344C105.866 224.496 85.9418 202.326 66.0774 180.47C43.3964 155.512 17.203 131.172 17.6201 100.95C18.1091 65.5014 29.3171 26.7063 68.5742 -0.765791C108.993 -29.0481 169.566 -38.669 226.218 -45.0149Z" fill="#246EF5"/>
<path d="M256.399 -43.7588L256.584 -46.2519L256.399 -43.7588C316.257 -39.311 375.332 -28.7412 423.781 -6.45189C449.036 5.16849 474.836 18.5082 494.766 33.3356C514.81 48.2472 528.335 64.2379 530.126 81.011C530.975 88.9603 528.295 96.2549 523.019 103.276C517.711 110.34 509.868 116.995 500.67 123.534C492.878 129.074 484.247 134.44 475.525 139.862C473.96 140.836 472.391 141.811 470.824 142.789C460.573 149.189 450.398 155.714 441.776 162.623L443.301 164.526L441.776 162.624C436.697 166.694 431.855 170.82 427.056 174.91C408.062 191.094 389.747 206.701 360.173 215.972L360.172 215.972C323.464 227.484 279.852 230.535 236.168 227.1C192.695 223.683 150.154 214.052 116.496 196.828L116.495 196.828C83.4722 179.934 67.2398 156.467 50.8387 132.757L50.454 132.201C48.284 129.064 46.0784 125.944 43.8813 122.836C36.4278 112.294 29.0723 101.89 23.5381 91.4113C16.3959 77.8881 12.5543 64.7023 15.4073 51.5657L12.9643 51.0351L15.4073 51.5657C22.3936 19.3966 40.8164 -13.7342 85.7233 -31.6693C132.309 -50.2725 196.361 -48.2206 256.399 -43.7588Z" stroke="white" stroke-width="5"/>
</svg>
