<svg width="1280" height="827" viewBox="0 0 1280 827" fill="none" xmlns="http://www.w3.org/2000/svg">
<path fill-rule="evenodd" clip-rule="evenodd" d="M-70.2329 688.819C-61.6196 659.226 -43.2304 641.017 -7.00409 623.865C43.0714 605.98 119.044 607.583 170.317 626.592C219.219 644.721 231.047 679.906 259.153 711.142C287.379 742.51 311.293 752.415 311.461 785.808C311.649 823.273 248.611 810.965 210.966 820.733C161.317 833.616 101.554 819.583 47.6404 801.354C5.70653 787.176 -20.5388 793.803 -44.7736 767.648C-69.1148 741.378 -78.0456 715.66 -70.2329 688.819Z" fill="#CFDEF7"/>
<path fill-rule="evenodd" clip-rule="evenodd" d="M277.426 697.764C278.664 720.545 270.648 735.424 250.42 750.685C221.078 767.407 169.75 771.206 130.86 760.314C93.7677 749.925 77.4955 724.293 51.2429 702.696C24.8789 681.008 6.49355 675.148 -1.53437 650.093C-10.5411 621.982 34.651 627.071 57.5807 617.259C87.8221 604.32 131.226 610.918 171.703 621.051C203.185 628.933 219.215 622.23 241.667 640.267C264.217 658.384 276.303 677.101 277.426 697.764Z" stroke="white" stroke-width="6.10936"/>
<path fill-rule="evenodd" clip-rule="evenodd" d="M391.218 -45.0149C447.904 -51.3652 505.207 -51.2106 554.886 -36.7593C606.348 -21.7869 661.742 0.12369 671.995 36.6685C682.028 72.4291 631.112 105.75 604.578 140.333C585.152 165.657 570.745 192.267 537.916 211.45C505.555 230.365 465.208 241.598 423.689 246.048C382.384 250.476 340.634 248.251 305.672 236.344C270.866 224.496 250.942 202.326 231.077 180.47C208.396 155.512 182.203 131.172 182.62 100.95C183.109 65.5014 194.317 26.7063 233.574 -0.765791C273.993 -29.0481 334.566 -38.669 391.218 -45.0149Z" fill="#99BFFD"/>
<path fill-rule="evenodd" clip-rule="evenodd" d="M391.218 -45.0149C447.904 -51.3652 505.207 -51.2106 554.886 -36.7593C606.348 -21.7869 661.742 0.12369 671.995 36.6685C682.028 72.4291 631.112 105.75 604.578 140.333C585.152 165.657 570.745 192.267 537.916 211.45C505.555 230.365 465.208 241.598 423.689 246.048C382.384 250.476 340.634 248.251 305.672 236.344C270.866 224.496 250.942 202.326 231.077 180.47C208.396 155.512 182.203 131.172 182.62 100.95C183.109 65.5014 194.317 26.7063 233.574 -0.765791C273.993 -29.0481 334.566 -38.669 391.218 -45.0149Z" fill="#246EF5"/>
<path d="M572.584 143.381L574.209 145.189L572.584 143.382C568.003 147.501 563.637 151.671 559.313 155.8C542.221 172.123 525.784 187.82 499.364 197.296L499.364 197.296C466.557 209.068 427.649 212.462 388.71 209.382C349.957 206.318 312.109 197.046 282.253 180.141L282.253 180.14C252.955 163.556 238.665 140.269 224.183 116.669L223.865 116.152C223.865 116.152 223.865 116.152 223.865 116.152C221.952 113.034 220.007 109.934 218.07 106.845C211.496 96.3687 205.009 86.0291 200.148 75.5992C193.88 62.1477 190.522 48.9416 193.194 35.6974L190.744 35.203L193.194 35.6974C199.713 3.38453 216.475 -29.8375 256.617 -48.0693C298.264 -66.9819 355.339 -65.4576 408.94 -61.4767C462.337 -57.5117 514.947 -47.4281 557.969 -25.5768C580.425 -14.17 603.335 -1.05883 620.991 13.5779C638.718 28.2727 650.7 44.1366 652.174 60.9674C653.579 77.0216 642.174 90.5188 625.508 103.84C618.51 109.434 610.763 114.861 602.93 120.35C601.523 121.335 600.114 122.323 598.706 123.313C589.498 129.791 580.349 136.4 572.584 143.381Z" stroke="white" stroke-width="5"/>
</svg>
