<svg width="174" height="604" viewBox="0 0 174 604" fill="none" xmlns="http://www.w3.org/2000/svg">
<path fill-rule="evenodd" clip-rule="evenodd" d="M167.846 423.806C156.395 446.281 138.825 458.109 107.076 466.36C64.0806 473.081 3.24388 460.174 -35.0732 437.05C-71.6181 414.996 -75.7471 384.898 -93.5678 355.487C-111.464 325.95 -129.177 314.33 -124.205 287.456C-118.627 257.305 -69.8263 276.841 -38.066 274.744C3.8217 271.979 49.7252 292.401 90.2845 315.301C121.831 333.113 143.946 331.798 159.431 356.533C174.984 381.377 178.232 403.42 167.846 423.806Z" fill="#CFDEF7"/>
<path fill-rule="evenodd" clip-rule="evenodd" d="M-89.0779 462.251C-109.07 445.094 -117.841 428.339 -121.004 403.604C-120.984 371.987 -99.2842 336.718 -71.1212 320.838C-44.2607 305.692 -14.5386 315.64 16.596 316.134C47.8629 316.63 61.7818 309.682 87.008 324.36C115.31 340.828 89.0259 365.241 86.2385 387.384C82.562 416.589 55.8611 438.688 27.574 456.164C5.57247 469.756 3.49139 485.113 -22.7681 485.031C-49.1429 484.949 -70.9445 477.813 -89.0779 462.251Z" stroke="white" stroke-width="5"/>
</svg>
