<svg width="200" height="200" viewBox="0 0 200 200" fill="none" xmlns="http://www.w3.org/2000/svg">
<path d="M194 100.869C194 135.582 164.238 164.722 124.054 172.785C109.423 175.721 94.5629 171.578 80.6003 166.312C47.8894 153.976 10.3427 142.719 7.21027 116.474C5.96754 106.062 8.6753 95.4777 10.0767 85.0858C13.2448 61.5941 24.2579 39.4814 49.7162 29.9386C80.4663 18.4123 114.431 41.9093 144.434 55.2594C168.81 66.1057 194 77.6917 194 100.869Z" fill="white"/>
<path d="M150 98.4981C150 114.105 140.604 127.748 126.599 135.139C112.073 142.804 94.6966 137.479 79.6285 130.943C68.8068 126.249 58.9438 120.903 55.3947 112.458C51.7349 103.749 54.5014 93.596 56.4062 84.3437C56.9038 81.9267 57.5518 79.5639 58.3712 77.2951C69.8239 45.5839 125.311 60.23 145.952 86.8897C148.469 90.1415 150 93.9265 150 98.4981Z" fill="#A1BBC4"/>
<path d="M63.3325 95.4065C69.6997 104.395 82.4803 104.681 87.9771 95.2582L84.522 93.2427C80.7066 99.7834 71.5371 100.069 66.5966 93.0944L63.3325 95.4065ZM70.2901 76.2913C70.2901 75.0998 69.6527 74.207 68.8799 73.6918C68.1665 73.2162 67.3397 73.0441 66.6273 73.0441C65.9149 73.0441 65.0882 73.2162 64.3747 73.6918C63.602 74.207 62.9645 75.0998 62.9645 76.2913C62.9645 77.4828 63.602 78.3755 64.3747 78.8907C64.4161 78.9183 64.4579 78.9449 64.5 78.9705V78.999H64.5479C65.2196 79.3928 65.9719 79.5384 66.6273 79.5384C67.3397 79.5384 68.1665 79.3664 68.8799 78.8907C69.6527 78.3755 70.2901 77.4828 70.2901 76.2913ZM88.2495 76.2913C88.2495 75.0998 87.6121 74.207 86.8393 73.6918C86.1259 73.2162 85.2991 73.0441 84.5867 73.0441C83.8743 73.0441 83.0476 73.2162 82.3341 73.6918C81.5614 74.207 80.9239 75.0998 80.9239 76.2913C80.9239 77.4828 81.5614 78.3755 82.3341 78.8907C83.0476 79.3664 83.8743 79.5384 84.5867 79.5384C85.2991 79.5384 86.1259 79.3664 86.8393 78.8907C87.6121 78.3755 88.2495 77.4828 88.2495 76.2913ZM101.203 83.9406C101.203 98.6323 89.2934 110.542 74.6017 110.542C59.91 110.542 48 98.6323 48 83.9406C48 69.2489 59.91 57.3389 74.6017 57.3389C89.2934 57.3389 101.203 69.2489 101.203 83.9406Z" stroke="black" stroke-width="4"/>
<path d="M122.168 120.554C127.782 112.09 138.706 112.552 143.453 120.554M123.835 121.659C128.663 114.379 137.766 114.887 141.733 121.574L145.173 119.534C139.646 110.217 126.9 109.801 120.501 119.448L123.835 121.659ZM127.494 99.9341C127.494 98.7426 126.856 97.8498 126.084 97.3346C125.37 96.859 124.543 96.6869 123.831 96.6869C123.119 96.6869 122.292 96.859 121.578 97.3346C120.806 97.8498 120.168 98.7426 120.168 99.9341C120.168 101.126 120.806 102.018 121.578 102.534C122.292 103.009 123.119 103.181 123.831 103.181C124.543 103.181 125.37 103.009 126.084 102.534C126.856 102.018 127.494 101.126 127.494 99.9341ZM145.453 99.9341C145.453 98.7426 144.816 97.8498 144.043 97.3346C143.329 96.859 142.503 96.6869 141.79 96.6869C141.078 96.6869 140.251 96.859 139.538 97.3346C138.765 97.8498 138.128 98.7426 138.128 99.9341C138.128 101.126 138.765 102.018 139.538 102.534C140.251 103.009 141.078 103.181 141.79 103.181C142.503 103.181 143.329 103.009 144.043 102.534C144.816 102.018 145.453 101.126 145.453 99.9341ZM158.407 107.583C158.407 122.275 146.497 134.185 131.805 134.185C117.114 134.185 105.204 122.275 105.204 107.583C105.204 92.8917 117.114 80.9817 131.805 80.9817C146.497 80.9817 158.407 92.8917 158.407 107.583Z" stroke="black" stroke-width="4"/>
</svg>
