<svg width="200" height="200" viewBox="0 0 200 200" fill="none" xmlns="http://www.w3.org/2000/svg">
<path d="M180.971 86.2684C180.971 106.12 184.432 163.765 120.182 178.755C115.42 179.865 110.46 179.934 105.624 179.209C74.6416 174.562 47.6475 165.162 31.678 145.763C18.308 129.522 33.0278 107.193 37.5494 86.6484C43.3332 60.3683 32.7558 29.1629 85.6693 20.1495C130.774 12.4662 180.971 62 180.971 86.2684Z" fill="white"/>
<path d="M146.945 97.1475C146.945 108.346 149.683 140.822 121.939 151.018C116.514 153.012 110.545 152.823 104.941 151.406C95.0711 148.91 86.1344 145.157 79.0281 139.365C63.5863 126.78 72.9796 101.84 74.1424 81.9532C74.8457 69.9247 76.9217 58.6901 96.802 55.3037C119.889 51.371 146.945 79 146.945 97.1475Z" fill="#FAE1E6"/>
<path d="M95.0892 68.2257L93.0932 68.0984L93.0904 68.1426L93.0896 68.1869L95.0892 68.2257ZM93.9799 125.358L92.5793 126.786L95.8895 130.033L95.9795 125.397L93.9799 125.358ZM77.8951 109.579L79.2957 108.151L79.2956 108.151L77.8951 109.579ZM67.3568 118.829L65.883 120.181L65.9186 120.219L65.9562 120.256L67.3568 118.829ZM96.1991 147.123L94.7985 148.55L94.8985 148.648L95.0112 148.732L96.1991 147.123ZM114.502 154.74L114.285 156.728L114.393 156.74H114.502V154.74ZM133.361 154.74V156.74H133.62L133.87 156.674L133.361 154.74ZM150 140.593L151.836 141.387L152 141.007V140.593H150ZM136.688 109.034H134.688L138.67 109.307L136.688 109.034ZM122.268 104.137H120.268L124.256 104.355L122.268 104.137ZM95.3805 123.93L79.2957 108.151L76.4945 111.006L92.5793 126.786L95.3805 123.93ZM79.2956 108.151C77.4415 106.332 75.1632 105.727 72.9794 105.976C70.8548 106.219 68.8675 107.255 67.3347 108.637C65.8048 110.016 64.5829 111.871 64.1589 113.917C63.7203 116.034 64.1602 118.303 65.883 120.181L68.8305 117.476C68.0573 116.634 67.8731 115.706 68.0757 114.728C68.293 113.68 68.9776 112.541 70.013 111.608C71.0454 110.677 72.282 110.082 73.4333 109.95C74.5255 109.826 75.5751 110.104 76.4945 111.006L79.2956 108.151ZM65.9562 120.256L94.7985 148.55L97.5997 145.695L68.7573 117.401L65.9562 120.256ZM95.0112 148.732C98.5239 151.325 101.402 153.134 104.405 154.389C107.426 155.651 110.474 156.312 114.285 156.728L114.72 152.752C111.148 152.362 108.504 151.766 105.947 150.698C103.373 149.623 100.792 148.027 97.3869 145.514L95.0112 148.732ZM114.502 156.74H133.361V152.74H114.502V156.74ZM133.87 156.674C138.49 155.457 142.031 154.028 144.92 151.611C147.816 149.188 149.875 145.925 151.836 141.387L148.164 139.8C146.32 144.067 144.57 146.688 142.353 148.543C140.128 150.404 137.252 151.646 132.851 152.806L133.87 156.674ZM152 140.593V104.681H148V140.593H152ZM152 104.681C152 99.8509 147.57 96.4054 143.303 96.4926C141.038 96.5389 138.791 97.5549 137.165 99.7372C135.575 101.871 134.688 104.962 134.688 109.034H138.688C138.688 105.489 139.466 103.343 140.372 102.127C141.242 100.96 142.323 100.513 143.385 100.492C145.774 100.443 148 102.439 148 104.681H152ZM138.67 109.307C139.396 104.032 138.856 99.9181 137.397 96.9749C135.916 93.9855 133.478 92.2302 130.723 91.9458C125.191 91.3745 120.268 96.5934 120.268 104.137H124.268C124.268 98.0784 127.941 95.6797 130.313 95.9246C131.51 96.0483 132.851 96.8095 133.813 98.7512C134.798 100.739 135.367 103.971 134.707 108.761L138.67 109.307ZM124.256 104.355C125.139 96.2658 121.464 90.4014 116.069 90.1019C113.445 89.9561 110.942 91.2674 109.18 93.7083C107.435 96.1261 106.401 99.6367 106.401 104.137H110.401C110.401 100.204 111.309 97.5936 112.424 96.0495C113.522 94.5285 114.798 94.0374 115.848 94.0957C117.802 94.2042 121.06 96.7737 120.279 103.92L124.256 104.355ZM110.401 68.2257C110.401 65.6163 109.361 63.5038 107.723 62.058C106.12 60.6445 104.037 59.9431 101.995 59.9007C99.951 59.8583 97.8228 60.4738 96.1345 61.8596C94.4117 63.2737 93.2656 65.3958 93.0932 68.0984L97.0851 68.353C97.1904 66.7032 97.8471 65.6288 98.6724 64.9514C99.5322 64.2456 100.697 63.8746 101.912 63.8999C103.129 63.9251 104.269 64.3457 105.076 65.0576C105.847 65.7371 106.401 66.7535 106.401 68.2257H110.401ZM93.0896 68.1869L92.7938 83.4204L96.793 83.4981L97.0888 68.2645L93.0896 68.1869ZM92.7938 83.4204L91.9803 125.319L95.9795 125.397L96.793 83.4981L92.7938 83.4204ZM110.401 104.137V83.4593H106.401V104.137H110.401ZM110.401 83.4593V68.2257H106.401V83.4593H110.401ZM95.9246 81.8099C87.8178 76.2501 86.4307 69.5268 88.2072 64.3901C90.0467 59.0713 95.3914 54.9902 101.746 54.9902V50.9902C93.6789 50.9902 86.8214 56.1592 84.4269 63.0826C81.9694 70.1882 84.3167 78.6993 93.6622 85.1087L95.9246 81.8099ZM101.746 54.9902C107.547 54.9902 113.056 58.9427 115.058 64.2394C116.042 66.8423 116.176 69.7616 115.079 72.7254C113.979 75.7 111.584 78.8607 107.273 81.8082L109.53 85.1103C114.37 81.8012 117.383 78.025 118.831 74.1135C120.282 70.1913 120.104 66.2754 118.8 62.8252C116.226 56.0157 109.256 50.9902 101.746 50.9902V54.9902Z" fill="black"/>
</svg>
