<svg width="200" height="200" viewBox="0 0 200 200" fill="none" xmlns="http://www.w3.org/2000/svg">
<path d="M173.122 69.0595C175.98 89.5062 167.559 109.41 160.164 128.685C146.399 164.567 152.931 189.234 102.167 181.614C34.7966 171.502 17.8023 138.467 29.3341 100.713C50.8096 30.4037 59.5862 21.1977 87.9189 19.9923C97.3554 19.5908 106.756 18.0682 116.106 16.7372C155.197 11.1731 168.772 37.9339 173.122 69.0595Z" fill="white"/>
<path d="M139.132 78.0062C143.91 96.629 135.639 115.73 130.674 134.303C126.239 150.893 125.094 161.112 100.94 157.145C62.9591 150.908 53.3785 130.533 59.8796 107.248C69.8896 71.3948 75.0057 61.3034 85.5051 58.4629C95.4317 55.7775 105.947 54.4192 116.211 55.0559C129.357 55.8713 135.93 65.5259 139.132 78.0062Z" fill="#FFE7C1"/>
<path d="M127.189 114.493L127.676 114.379L128.052 114.049L140.138 103.442L140.476 132.765C140.496 134.436 139.147 135.8 137.477 135.8H81C79.3431 135.8 78 134.457 78 132.8V60C78 58.3431 79.3431 57 81 57H137.535C139.192 57 140.535 58.3431 140.535 60V86.05V87.6881L127.98 99.1656V97.9746H86.396V101.975H124.908L120.393 106.102L119.996 106.465L119.834 106.979L117.755 113.603L116.705 116.949L120.12 116.149L127.189 114.493ZM124.639 107.64L153.644 81.123L156.018 84.1816L126.819 109.809L124.639 107.64ZM122.665 111.318L122.768 111.421L122.622 111.455L122.665 111.318ZM86.396 74.4H132.139V70.4H86.396V74.4ZM86.396 83.4H111.347V79.4H86.396V83.4ZM86.396 92.4H122.574V88.4H86.396V92.4ZM86.396 111.6H95.5208H110.931V107.6H95.5208H86.396V111.6Z" stroke="black" stroke-width="4"/>
</svg>
