<svg width="333" height="128" viewBox="0 0 333 128" fill="none" xmlns="http://www.w3.org/2000/svg">
<g clip-path="url(#clip0_436_10507)">
<path d="M50.5887 80.1895C50.7871 80.3895 50.8934 80.6553 50.8919 80.9363V85.8583C50.8903 86.1344 50.7743 86.3962 50.5665 86.5945C50.357 86.7969 50.0302 86.8628 49.7872 86.9049L12.5509 86.8787C11.9692 86.8739 11.4986 86.3987 11.5026 85.8131V80.2278C11.5026 80.0294 11.6264 79.7677 11.8264 79.5455L39.6696 48.5114H11.0458C10.4554 48.5066 9.99682 48.0519 9.99989 47.4774L10.0371 42.438C10.0395 42.1571 10.1506 41.8936 10.3514 41.6961C10.5498 41.501 10.8115 41.3938 11.0948 41.3938H11.1036L48.3431 41.4407C48.9239 41.4454 49.3921 41.9215 49.3873 42.5086V47.8209C49.3873 48.2129 49.3048 48.4731 49.1081 48.6922L21.3141 79.8768H49.8477C50.1286 79.8784 50.3921 79.9894 50.5887 80.1895V80.1895ZM101.57 47.6022C105.97 52.0662 108.366 57.9673 108.32 64.2168C108.275 70.4646 105.792 76.3293 101.328 80.7283C96.8635 85.1274 90.9346 87.5863 84.7138 87.4793C78.4627 87.434 72.5991 84.9504 68.1999 80.4863C63.8008 76.0223 61.403 70.1219 61.4491 63.8725C61.4951 57.6223 63.9787 51.7576 68.4428 47.3587C72.8641 43.0009 78.6962 40.6078 84.8804 40.6078C84.9392 40.6078 84.9995 40.6078 85.0583 40.6087C91.3078 40.654 97.1699 43.1383 101.571 47.6023L101.57 47.6022ZM100.826 64.1613C100.89 55.3711 93.7913 48.1679 85.0026 48.1045C76.2315 48.0569 69.0092 55.1378 68.9441 63.9272C68.8805 72.7157 75.9789 79.9199 84.7692 79.9848C84.8088 79.9848 84.8469 79.9857 84.8867 79.9857C93.6197 79.9848 100.759 72.911 100.826 64.1613ZM207.826 86.1392C207.932 86.3811 207.831 86.578 207.782 86.6518C207.734 86.7241 207.594 86.8922 207.336 86.8922H200.542C200.329 86.8907 200.137 86.7637 200.055 86.5749L195.786 76.5667H172.627L168.136 86.5756C168.049 86.7683 167.859 86.8922 167.643 86.8922H160.765C160.501 86.8907 160.363 86.7184 160.316 86.6439C160.268 86.5701 160.17 86.3726 160.278 86.1346L180.511 41.7843C180.616 41.5613 180.778 41.4169 180.927 41.4169H188.019C188.211 41.4169 188.373 41.7422 188.414 41.8359L207.826 86.139L207.826 86.1392ZM192.658 69.4507L184.396 50.6206L175.858 69.4507H192.658ZM147.825 79.7514H147.823L128.463 79.7531V41.8359C128.465 41.7168 128.422 41.6129 128.344 41.5336C128.266 41.4542 128.162 41.4106 128.051 41.4097L124.727 41.4152L121.403 41.4097C121.292 41.4106 121.187 41.4542 121.109 41.5336C121.031 41.6129 120.989 41.717 120.99 41.8359V86.4532C120.989 86.6096 121.063 86.7078 121.109 86.754C121.187 86.8333 121.292 86.8777 121.404 86.8785L147.4 86.8982H147.825C147.944 86.8997 148.048 86.857 148.127 86.7791C148.206 86.7012 148.25 86.5966 148.251 86.4855V86.4478V80.1743V80.1637C148.25 80.0527 148.206 79.9479 148.127 79.8702C148.048 79.7924 147.944 79.7495 147.825 79.7511L147.825 79.7514ZM321.322 65.7619C316.885 75.2108 304.119 82.5838 296.904 86.1371C295.339 86.911 294.04 87.494 293.582 87.6828C293.577 87.6856 293.015 87.9579 292.305 87.999L292.173 88.001L292.141 87.999C291.431 87.9579 290.869 87.6856 290.858 87.6801C290.405 87.494 289.106 86.9103 287.543 86.1371C282.744 83.7739 275.491 79.721 269.865 74.4918C264.239 79.721 256.986 83.7739 252.187 86.1371C250.623 86.911 249.324 87.494 248.866 87.6828C248.86 87.6856 248.298 87.9579 247.589 87.999L247.457 88.001L247.424 87.999C246.714 87.9579 246.153 87.6856 246.141 87.6801C245.689 87.494 244.389 86.9103 242.826 86.1371C235.611 82.5838 222.845 75.2115 218.408 65.7619C216.396 61.4815 216.186 56.6516 217.816 52.1623C219.501 47.5365 222.92 43.8358 227.443 41.7412C233.643 38.8697 240.858 39.5889 246.271 43.6171C246.664 43.911 247.06 44.2332 247.449 44.5757L247.507 44.6269L247.565 44.5757C247.946 44.2377 248.343 43.9151 248.741 43.6171C254.154 39.5889 261.368 38.87 267.571 41.7412C268.371 42.112 269.137 42.5342 269.865 43.0021C270.593 42.5342 271.358 42.1122 272.159 41.7412C278.359 38.8697 285.575 39.5889 290.987 43.6171C291.381 43.911 291.777 44.2332 292.165 44.5757L292.223 44.6269L292.282 44.5757C292.663 44.2377 293.06 43.9151 293.458 43.6171C298.871 39.5889 306.085 38.87 312.287 41.7412C316.809 43.8354 320.228 47.5362 321.913 52.1619C323.543 56.6507 323.334 61.4805 321.322 65.7619V65.7619ZM269.865 64.3265C270.14 63.8706 270.389 63.4105 270.607 62.9464C271.863 60.2674 271.99 57.2423 270.965 54.4273C270.677 53.6352 270.306 52.8868 269.865 52.1872C269.423 52.8868 269.052 53.6352 268.764 54.4273C267.739 57.2428 267.866 60.2678 269.123 62.9464C269.341 63.4105 269.59 63.8706 269.865 64.3265ZM265.429 69.5889C264.524 68.3567 263.743 67.0795 263.124 65.7619C261.113 61.4815 260.903 56.6516 262.532 52.1623C263.107 50.5851 263.883 49.1156 264.836 47.7806C264.819 47.7729 264.804 47.7643 264.788 47.7566C263.171 47.008 261.458 46.6282 259.697 46.6282C257.144 46.6282 254.725 47.4253 252.703 48.9331C251.606 49.7494 250.38 50.8686 248.842 53.5087C248.423 54.2819 247.782 55.4579 247.726 55.5389C247.679 55.6081 247.592 55.7366 247.507 55.7366C247.422 55.7366 247.336 55.6096 247.279 55.5269C247.232 55.4577 246.591 54.2823 246.17 53.5063C244.632 50.8667 243.406 49.7483 242.31 48.9331C240.287 47.4253 237.869 46.6282 235.317 46.6282C233.555 46.6282 231.843 47.0077 230.225 47.7566C227.318 49.1023 225.123 51.4714 224.048 54.4275C223.023 57.243 223.15 60.268 224.406 62.9466C228.117 70.8474 240.573 77.6394 245.756 80.193C246.368 80.4947 246.944 80.7712 247.47 81.0142L247.507 81.0313L247.544 81.0142C248.072 80.7691 248.649 80.4934 249.257 80.193C252.906 78.3952 260.16 74.4964 265.429 69.5891L265.429 69.5889ZM315.682 54.4273C314.606 51.4714 312.412 49.1021 309.504 47.7565C307.887 47.0079 306.175 46.628 304.413 46.628C301.86 46.628 299.442 47.4251 297.419 48.9329C296.323 49.7492 295.096 50.8684 293.558 53.5086C293.139 54.2818 292.498 55.4577 292.442 55.5387C292.396 55.6079 292.309 55.7364 292.223 55.7364C292.138 55.7364 292.052 55.6094 291.995 55.5267C291.948 55.4575 291.308 54.2821 290.887 53.5062C289.349 50.8665 288.123 49.7482 287.026 48.9329C285.004 47.4251 282.586 46.628 280.033 46.628C278.272 46.628 276.559 47.0075 274.942 47.7565C274.925 47.764 274.91 47.7727 274.893 47.7804C275.846 49.1154 276.622 50.5848 277.197 52.1617C278.827 56.6506 278.617 61.4803 276.606 65.7617C275.987 67.0795 275.206 68.3566 274.301 69.5889C279.57 74.4962 286.824 78.395 290.472 80.1928C291.084 80.4945 291.661 80.771 292.186 81.014L292.223 81.0311L292.26 81.014C292.788 80.769 293.365 80.4932 293.974 80.1928C299.156 77.6391 311.613 70.8472 315.324 62.9464C316.58 60.2674 316.707 57.2423 315.682 54.4273H315.682Z" fill="#183B54"/>
</g>
<defs>
<clipPath id="clip0_436_10507">
<rect width="313" height="48.0006" fill="white" transform="translate(10 40)"/>
</clipPath>
</defs>
</svg>
