<svg width="1280" height="828" viewBox="0 0 1280 828" fill="none" xmlns="http://www.w3.org/2000/svg">
<path fill-rule="evenodd" clip-rule="evenodd" d="M-236.749 699.361C-241.952 651.216 -233.463 615.876 -208.582 574.331C-171.65 525.64 -103.096 494.87 -49.0162 500.99C2.56205 506.828 28.4595 554.435 67.1752 589.011C106.055 623.733 131.731 628.146 146.434 678.157C162.928 734.267 101.261 743.333 71.8946 774.422C33.1643 815.424 -26.3293 820.473 -82.4271 816.675C-126.06 813.722 -146.613 835.123 -179.657 806.476C-212.846 777.704 -232.03 743.032 -236.749 699.361Z" fill="#B7CEDA"/>
<path fill-rule="evenodd" clip-rule="evenodd" d="M-111.679 375.102C-63.272 373.747 -28.7192 385.022 10.7139 413.13C56.3107 453.82 81.5275 524.606 71.1227 578.027C61.1991 628.977 11.682 651.003 -25.8652 686.844C-63.5719 722.838 -70.0139 748.081 -121.037 758.757C-178.281 770.734 -182.41 708.54 -211.064 676.793C-248.854 634.923 -249.152 575.216 -240.902 519.598C-234.485 476.339 -254.183 454.148 -222.997 423.489C-191.675 392.695 -155.586 376.331 -111.679 375.102Z" stroke="#F9F9F9" stroke-width="5"/>
<path fill-rule="evenodd" clip-rule="evenodd" d="M575.858 -176C645.088 -176.037 714.188 -166.898 772.168 -138.99C832.228 -110.077 896.098 -70.8669 903.548 -18.2589C910.838 33.2201 844.938 71.8022 808.278 115.944C781.438 148.267 760.478 183.168 718.298 204.832C676.718 226.196 626.538 235.592 575.858 235.338C525.438 235.087 475.378 225.48 434.808 203.416C394.418 181.457 373.368 147.409 352.348 113.808C328.348 75.4381 300.028 37.3841 304.598 -4.73689C309.958 -54.1419 328.698 -106.549 379.748 -138.783C432.308 -171.967 506.668 -175.964 575.858 -176Z" fill="#BFE0EB"/>
<path d="M776.355 94.3469L778.278 95.9442L776.355 94.347C770.89 100.928 765.695 107.573 760.542 114.163C740.119 140.284 720.362 165.553 687.156 182.608L687.155 182.608C646.02 203.744 596.26 213.091 545.87 212.838C495.725 212.589 446.104 203.03 406.002 181.22L406.002 181.22C366.563 159.778 345.834 126.64 324.936 93.2315L324.467 92.4822C321.724 88.0969 318.936 83.7323 316.155 79.378C306.688 64.558 297.297 49.856 290.008 34.8499C280.604 15.4901 274.869 -4.05989 277.083 -24.4672L274.599 -24.7368L277.083 -24.4673C282.401 -73.4816 300.936 -125.005 351.083 -156.669C402.948 -189.414 476.587 -193.464 545.859 -193.5C614.911 -193.537 683.584 -184.414 741.084 -156.737C771.058 -142.307 801.828 -125.379 826.002 -105.576C850.21 -85.7461 867.476 -63.3027 871.073 -37.9083C874.545 -13.3905 860.651 8.35674 840.566 29.8888C832.083 38.9829 822.621 47.9126 813.077 56.9186C811.364 58.5351 809.649 60.1541 807.936 61.7769C796.716 72.4054 785.625 83.1844 776.355 94.3469Z" stroke="#F9F9F9" stroke-width="5"/>
</svg>
