<svg width="630" height="432" viewBox="0 0 630 432" fill="none" xmlns="http://www.w3.org/2000/svg">
<path fill-rule="evenodd" clip-rule="evenodd" d="M301.75 20.0001C370.98 19.9631 440.08 29.1021 498.06 57.0101C558.12 85.9231 621.989 125.133 629.439 177.741C636.729 229.22 570.83 267.802 534.17 311.944C507.33 344.267 486.369 379.168 444.189 400.832C402.609 422.196 352.43 431.592 301.75 431.338C251.33 431.087 201.269 421.48 160.699 399.416C120.309 377.457 99.2595 343.409 78.2395 309.808C54.2395 271.438 25.9195 233.384 30.4895 191.263C35.8495 141.858 54.5896 89.4511 105.64 57.2171C158.2 24.0331 232.56 20.0361 301.75 20.0001Z" fill="#BFE0EB"/>
<path d="M502.246 290.347L504.17 291.944L502.246 290.347C496.782 296.928 491.586 303.573 486.433 310.163C466.011 336.284 446.253 361.553 413.047 378.608L413.047 378.608C371.912 399.744 322.152 409.091 271.762 408.838C221.616 408.589 171.996 399.03 131.894 377.22L131.894 377.22C92.4546 355.778 71.7256 322.64 50.8276 289.231L50.359 288.482C47.616 284.097 44.828 279.732 42.0466 275.378C32.58 260.558 23.1889 245.856 15.8995 230.85C6.49525 211.49 0.7608 191.94 2.97494 171.533L0.490563 171.263L2.97494 171.533C8.29255 122.518 26.8275 70.9948 76.9742 39.3311C128.839 6.58569 202.479 2.53615 271.751 2.50011C340.802 2.46321 409.476 11.5859 466.975 39.2627C496.95 53.6926 527.72 70.6213 551.894 90.424C576.102 110.254 593.368 132.697 596.964 158.092C600.436 182.609 586.542 204.357 566.458 225.889C557.975 234.983 548.512 243.913 538.969 252.919C537.256 254.535 535.54 256.154 533.827 257.777C522.608 268.405 511.517 279.184 502.246 290.347Z" stroke="#F9F9F9" stroke-width="5"/>
</svg>
