<svg width="406" height="457" viewBox="0 0 406 457" fill="none" xmlns="http://www.w3.org/2000/svg">
<path fill-rule="evenodd" clip-rule="evenodd" d="M13.2507 327.886C8.04764 279.741 16.537 244.4 41.4182 202.855C78.35 154.165 146.904 123.395 200.984 129.515C252.562 135.353 278.459 182.96 317.175 217.535C356.055 252.258 381.731 256.671 396.434 306.682C412.928 362.792 351.261 371.858 321.895 402.947C283.164 443.949 223.671 448.998 167.573 445.2C123.94 442.247 103.387 463.647 70.3432 435.001C37.1542 406.229 17.9701 371.556 13.2507 327.886Z" fill="#B7CEDA"/>
<path fill-rule="evenodd" clip-rule="evenodd" d="M138.321 3.6267C186.728 2.27174 221.281 13.5467 260.714 41.6552C306.311 82.3449 331.528 153.131 321.123 206.551C311.199 257.501 261.682 279.528 224.135 315.369C186.428 351.363 179.986 376.606 128.963 387.282C71.719 399.259 67.5895 337.065 38.936 305.318C1.14623 263.448 0.847744 203.741 9.0978 148.123C15.5146 104.864 -4.18268 82.673 27.0027 52.0136C58.3249 21.2196 94.4141 4.85571 138.321 3.6267Z" stroke="#F9F9F9" stroke-width="5"/>
</svg>
